M48
; DRILL file {KiCad (7.0.0)} date Mon Mar 20 14:44:39 2023
; FORMAT={-:-/ absolute / inch / decimal}
; #@! TF.CreationDate,2023-03-20T14:44:39+00:00
; #@! TF.GenerationSoftware,Kicad,Pcbnew,(7.0.0)
; #@! TF.FileFunction,Plated,1,4,PTH
FMAT,2
INCH
; #@! TA.AperFunction,Plated,PTH,ComponentDrill
T1C0.0118
; #@! TA.AperFunction,Plated,PTH,ViaDrill
T2C0.0138
; #@! TA.AperFunction,Plated,PTH,ComponentDrill
T3C0.0197
; #@! TA.AperFunction,Plated,PTH,ComponentDrill
T4C0.0236
; #@! TA.AperFunction,Plated,PTH,ComponentDrill
T5C0.0295
; #@! TA.AperFunction,Plated,PTH,ComponentDrill
T6C0.0299
; #@! TA.AperFunction,Plated,PTH,ComponentDrill
T7C0.0394
; #@! TA.AperFunction,Plated,PTH,ViaDrill
T8C0.0787
; #@! TA.AperFunction,Plated,PTH,ViaDrill
T9C0.1181
; #@! TA.AperFunction,Plated,PTH,ComponentDrill
T10C0.1260
%
G90
G05
T1
X0.5425Y2.8209
X0.5425Y2.7815
X0.5425Y2.7421
X0.5472Y2.2522
X0.5472Y2.2128
X0.5472Y2.1734
X0.5937Y2.8209
X0.5937Y2.7815
X0.5937Y2.7421
X0.5984Y2.2522
X0.5984Y2.2128
X0.5984Y2.1734
X0.6654Y1.7648
X0.6654Y1.7215
X0.6654Y1.6781
X0.7087Y1.7648
X0.7087Y1.7215
X0.7087Y1.6781
X0.752Y1.7648
X0.752Y1.7215
X0.752Y1.6781
X1.2618Y2.9311
X1.2618Y2.872
X1.3209Y2.9311
X1.3209Y2.872
X1.3799Y2.9311
X1.3799Y2.872
X2.1811Y2.9291
X2.1811Y2.8701
X2.2402Y2.9291
X2.2402Y2.8701
X2.2992Y2.9291
X2.2992Y2.8701
T2
X0.0354Y1.813
X0.0807Y1.8878
X0.0807Y1.8484
X0.1004Y1.7579
X0.1004Y1.7185
X0.142Y1.671
X0.1535Y1.6378
X0.1752Y1.6831
X0.1831Y2.5157
X0.1831Y2.4744
X0.1831Y2.437
X0.1831Y1.8051
X0.1988Y1.3917
X0.2205Y1.8819
X0.2224Y2.7815
X0.2224Y2.7421
X0.2224Y2.7008
X0.2224Y2.6614
X0.2243Y1.5758
X0.2244Y0.5197
X0.2264Y2.1713
X0.2264Y2.1299
X0.2264Y2.0906
X0.2264Y2.0472
X0.2264Y0.8346
X0.2598Y0.8858
X0.2598Y0.7815
X0.2655Y1.7148
X0.2776Y0.5728
X0.2776Y0.4685
X0.2911Y1.6499
X0.2953Y1.748
X0.3107Y1.4718
X0.313Y1.0354
X0.3213Y1.5354
X0.3327Y3.4606
X0.3386Y1.8661
X0.3467Y1.5054
X0.3524Y1.6993
X0.3563Y1.0984
X0.3681Y3.561
X0.3681Y0.5586
X0.3694Y0.9941
X0.3716Y1.5362
X0.374Y1.7913
X0.3917Y3.3031
X0.3996Y1.1339
X0.4008Y0.872
X0.4016Y1.2205
X0.4094Y1.748
X0.4331Y1.3799
X0.4331Y1.313
X0.437Y0.9764
X0.4429Y0.5591
X0.4469Y1.6752
X0.4478Y1.6378
X0.4492Y1.0463
X0.4626Y1.7087
X0.4665Y3.3031
X0.4764Y3.561
X0.4902Y1.9311
X0.502Y0.8578
X0.5039Y1.2008
X0.5039Y1.0591
X0.5217Y3.4232
X0.5256Y3.563
X0.5256Y3.372
X0.5295Y0.7062
X0.5295Y0.656
X0.5295Y0.561
X0.5379Y1.0473
X0.5394Y0.9075
X0.5407Y1.2018
X0.5433Y1.687
X0.5492Y1.9311
X0.5492Y1.8917
X0.5492Y1.8524
X0.5532Y1.4252
X0.5532Y1.2677
X0.5669Y3.2756
X0.5787Y1.122
X0.5886Y1.9311
X0.5886Y1.8917
X0.5886Y1.8524
X0.5886Y1.2264
X0.5886Y1.0
X0.5886Y0.8543
X0.6004Y3.372
X0.6024Y1.2815
X0.6161Y0.7042
X0.6161Y0.6654
X0.6165Y1.1972
X0.622Y3.4094
X0.626Y1.0276
X0.6319Y3.4902
X0.6358Y3.5423
X0.6358Y3.1969
X0.6555Y1.5118
X0.6555Y1.4724
X0.6732Y0.6902
X0.6752Y0.7495
X0.6831Y0.55
X0.6909Y3.189
X0.6949Y1.5118
X0.6949Y1.4724
X0.7158Y3.275
X0.7205Y1.3169
X0.7244Y1.3563
X0.7249Y3.4094
X0.7321Y1.434
X0.7368Y0.9087
X0.7402Y0.9911
X0.7433Y3.1108
X0.7433Y3.0715
X0.7433Y3.0321
X0.7492Y2.5413
X0.7492Y2.502
X0.7492Y2.4626
X0.75Y0.7495
X0.75Y3.5157
X0.752Y2.0354
X0.752Y1.998
X0.752Y1.9587
X0.7638Y0.8839
X0.7648Y3.372
X0.7654Y3.2603
X0.7711Y3.4469
X0.7711Y3.313
X0.7825Y2.8766
X0.7825Y2.8372
X0.7827Y3.1108
X0.7827Y3.0715
X0.7827Y3.0321
X0.7854Y3.5157
X0.7854Y1.7992
X0.7884Y2.3071
X0.7884Y2.2677
X0.7886Y2.5413
X0.7886Y2.502
X0.7886Y2.4626
X0.7913Y2.0354
X0.7913Y1.998
X0.7913Y1.9587
X0.7953Y1.0295
X0.7953Y0.561
X0.807Y1.6366
X0.8071Y1.5079
X0.8071Y1.3976
X0.8091Y0.7495
X0.8091Y0.7107
X0.8219Y2.8766
X0.8219Y2.8372
X0.8248Y1.752
X0.8268Y3.1752
X0.8268Y1.8563
X0.8278Y2.3071
X0.8278Y2.2677
X0.8386Y1.998
X0.8386Y1.9587
X0.8445Y1.5079
X0.8445Y1.3976
X0.8504Y1.1634
X0.8612Y2.8766
X0.8612Y2.8372
X0.8668Y1.8248
X0.8671Y2.3071
X0.8671Y2.2677
X0.875Y1.5621
X0.878Y1.4646
X0.8799Y1.1377
X0.8819Y0.8524
X0.8839Y1.9882
X0.8839Y1.9508
X0.8839Y1.9134
X0.8839Y1.878
X0.8878Y0.9055
X0.8907Y3.2224
X0.8996Y3.5404
X0.9016Y2.7776
X0.9016Y2.7402
X0.9016Y2.7028
X0.9035Y0.561
X0.9075Y1.1131
X0.9114Y1.2513
X0.9193Y0.8583
X0.9272Y3.2224
X0.9331Y1.0885
X0.937Y0.9134
X0.939Y3.3819
X0.9406Y0.6564
X0.9469Y1.252
X0.9583Y3.4602
X0.9583Y3.4228
X0.9724Y0.5256
X0.9764Y3.3445
X0.9835Y1.0403
X0.9937Y3.5606
X0.998Y0.8209
X0.998Y0.5571
X1.0173Y3.3028
X1.0183Y1.0266
X1.0354Y0.9094
X1.0537Y1.027
X1.0728Y0.5571
X1.0921Y3.3028
X1.102Y3.5606
X1.1319Y0.8563
X1.1472Y3.4228
X1.1512Y3.5626
X1.1512Y3.3717
X1.1516Y1.0217
X1.1594Y0.7047
X1.1594Y0.6555
X1.1594Y0.5591
X1.1693Y0.9075
X1.1752Y3.2752
X1.1752Y1.5728
X1.1772Y1.7343
X1.1772Y1.6949
X1.1772Y1.6555
X1.1772Y1.6142
X1.1988Y2.1831
X1.2047Y1.2421
X1.2067Y1.2067
X1.2087Y2.6791
X1.2087Y2.6417
X1.2087Y2.6024
X1.2117Y3.0689
X1.2185Y0.8563
X1.2238Y3.2303
X1.226Y3.3717
X1.2303Y1.4257
X1.2303Y1.3194
X1.2323Y2.2343
X1.2323Y2.1949
X1.2323Y2.1614
X1.2323Y2.122
X1.2402Y1.2421
X1.2461Y0.7028
X1.2461Y0.6673
X1.2471Y3.0684
X1.2476Y3.4091
X1.25Y1.7854
X1.2509Y1.5571
X1.2575Y3.4898
X1.2579Y2.0886
X1.2598Y2.3898
X1.2614Y3.5419
X1.2736Y1.9035
X1.2825Y1.4587
X1.2825Y1.498
X1.2845Y1.0591
X1.2918Y2.0548
X1.3022Y3.0684
X1.3031Y0.689
X1.3055Y0.7481
X1.3115Y2.0842
X1.313Y0.5512
X1.3169Y2.2559
X1.3189Y1.0728
X1.3268Y2.6102
X1.3268Y1.7146
X1.3307Y1.9892
X1.331Y2.0541
X1.3396Y3.0684
X1.3476Y1.5287
X1.35Y3.2752
X1.3501Y1.0928
X1.3505Y3.4091
X1.3583Y1.9646
X1.3654Y0.8858
X1.3665Y2.0543
X1.3756Y3.5154
X1.3799Y0.748
X1.3819Y2.4685
X1.3819Y2.4311
X1.3839Y3.2569
X1.3858Y2.6102
X1.39Y2.0807
X1.3904Y3.3717
X1.3967Y3.4465
X1.3967Y3.3126
X1.3969Y3.0679
X1.3976Y1.9016
X1.3986Y1.2943
X1.4021Y0.8858
X1.4094Y1.2559
X1.4094Y1.2185
X1.411Y3.5154
X1.4134Y2.0541
X1.4137Y1.9452
X1.4213Y2.2461
X1.4232Y0.748
X1.4252Y0.5591
X1.4341Y3.0689
X1.435Y2.5295
X1.437Y2.3051
X1.4391Y0.7097
X1.4469Y1.2559
X1.4488Y2.7776
X1.4528Y1.9843
X1.4528Y1.2008
X1.4587Y2.6378
X1.4882Y2.5295
X1.498Y3.189
X1.5059Y2.0846
X1.5118Y0.8563
X1.5177Y0.9035
X1.5256Y3.5404
X1.5287Y3.2067
X1.5335Y0.5591
X1.5335Y2.2983
X1.5374Y2.3927
X1.5374Y2.2146
X1.5374Y2.1752
X1.5374Y2.1358
X1.5394Y3.0945
X1.5394Y2.5295
X1.5472Y3.3287
X1.5472Y3.2953
X1.55Y0.8555
X1.5505Y2.3294
X1.5577Y1.6161
X1.5591Y0.9106
X1.5616Y1.2217
X1.563Y3.187
X1.5705Y0.6544
X1.5709Y2.2982
X1.5758Y1.8465
X1.5758Y1.811
X1.5768Y1.5413
X1.5807Y2.2343
X1.5827Y2.9213
X1.5862Y3.4602
X1.5862Y3.4228
X1.5955Y2.502
X1.5963Y3.1878
X1.597Y1.22
X1.5984Y0.5256
X1.5992Y2.0115
X1.5999Y1.9686
X1.6043Y2.5945
X1.6102Y2.7717
X1.6102Y2.7362
X1.6102Y2.1488
X1.6102Y2.1102
X1.6149Y2.4043
X1.6181Y2.061
X1.6201Y2.4764
X1.6217Y3.5606
X1.624Y0.8228
X1.624Y0.5571
X1.6277Y1.9905
X1.6299Y2.2323
X1.6299Y1.3248
X1.6324Y1.219
X1.6453Y3.3028
X1.6489Y2.3943
X1.6516Y2.3452
X1.6535Y2.5787
X1.6559Y1.9644
X1.6707Y1.1069
X1.6772Y2.998
X1.6775Y2.3698
X1.6777Y2.3206
X1.6801Y2.4189
X1.6811Y1.8366
X1.6811Y1.7768
X1.685Y1.5827
X1.687Y0.9803
X1.6988Y0.5571
X1.7047Y2.626
X1.7201Y3.3028
X1.7205Y1.6181
X1.7237Y1.1405
X1.7244Y2.7954
X1.7244Y2.7598
X1.7299Y3.5606
X1.7343Y2.4685
X1.7549Y1.5098
X1.7579Y0.8563
X1.7697Y2.4685
X1.7752Y3.4228
X1.7791Y3.5626
X1.7791Y3.3717
X1.7835Y3.185
X1.7854Y0.7047
X1.7854Y0.6555
X1.7854Y0.5591
X1.791Y1.9311
X1.7913Y2.3169
X1.7913Y2.2185
X1.7923Y2.1827
X1.7933Y3.0157
X1.7953Y1.75
X1.7953Y1.6949
X1.7953Y1.6594
X1.7953Y0.8858
X1.7972Y2.1476
X1.7982Y2.059
X1.7992Y1.9941
X1.813Y2.7224
X1.8169Y1.4764
X1.8192Y2.2877
X1.8205Y3.2854
X1.8209Y1.4252
X1.8211Y1.3246
X1.8228Y1.1093
X1.8299Y2.0984
X1.8321Y2.0476
X1.8321Y2.0122
X1.8346Y2.4705
X1.8415Y2.9429
X1.8428Y0.8566
X1.8444Y1.6764
X1.8465Y1.5177
X1.8475Y2.167
X1.8475Y2.1291
X1.8481Y2.2534
X1.8484Y2.5945
X1.8484Y0.998
X1.8514Y3.1988
X1.8534Y1.476
X1.8539Y3.3717
X1.86Y2.4952
X1.8622Y1.122
X1.8661Y2.7539
X1.8687Y3.1555
X1.872Y2.9675
X1.872Y2.8169
X1.872Y0.7028
X1.872Y0.6673
X1.8731Y1.2681
X1.875Y2.2303
X1.875Y1.0571
X1.8756Y3.4091
X1.8784Y1.6885
X1.8819Y1.8937
X1.8819Y1.8563
X1.8839Y1.8061
X1.8839Y1.7569
X1.8854Y3.4898
X1.8858Y1.5157
X1.8894Y3.5419
X1.9134Y1.8307
X1.9134Y1.7815
X1.9148Y1.8806
X1.9148Y1.916
X1.9176Y2.552
X1.9291Y0.6909
X1.9311Y0.748
X1.939Y0.5492
X1.9435Y2.5762
X1.9547Y2.3622
X1.9557Y1.6565
X1.9596Y2.5013
X1.9655Y2.2388
X1.9655Y2.2034
X1.9685Y3.189
X1.9705Y3.0216
X1.9744Y2.7717
X1.978Y3.2752
X1.9784Y3.4091
X1.9803Y1.6997
X1.9843Y2.311
X1.9852Y2.4743
X1.9921Y2.5797
X1.9931Y2.138
X1.9941Y1.4242
X1.9941Y0.9075
X2.0Y1.3169
X2.0Y1.1112
X2.0009Y2.2027
X2.002Y3.0413
X2.0036Y3.5154
X2.0059Y0.748
X2.0088Y2.1063
X2.0118Y2.2835
X2.0178Y3.2378
X2.0183Y3.3717
X2.0197Y0.8819
X2.0236Y1.4449
X2.0247Y3.4465
X2.0247Y3.3126
X2.0256Y1.628
X2.0291Y2.1354
X2.0315Y2.3535
X2.0354Y3.0925
X2.0364Y2.0561
X2.039Y3.5154
X2.0453Y0.748
X2.0502Y1.9213
X2.0502Y1.7431
X2.0502Y1.6929
X2.0512Y0.5591
X2.0561Y2.0855
X2.061Y1.628
X2.064Y1.1102
X2.065Y2.4783
X2.065Y0.7137
X2.066Y2.5613
X2.0672Y2.7473
X2.0752Y1.718
X2.0787Y2.9193
X2.0906Y3.1811
X2.0906Y1.4272
X2.0994Y2.4623
X2.1001Y1.7431
X2.1023Y1.8199
X2.1026Y2.747
X2.1034Y1.6749
X2.1211Y1.3471
X2.124Y3.0492
X2.124Y1.5118
X2.137Y3.1967
X2.137Y3.1614
X2.1382Y0.8563
X2.1398Y1.4783
X2.1437Y0.9035
X2.1496Y2.3602
X2.1531Y3.54
X2.1594Y0.5591
X2.1666Y3.0659
X2.1682Y1.6742
X2.1713Y2.6024
X2.1749Y2.3344
X2.1752Y1.9223
X2.176Y0.8555
X2.1811Y1.4764
X2.1811Y1.1056
X2.1811Y0.9094
X2.1984Y0.6544
X2.1988Y2.6263
X2.1998Y2.0906
X2.2008Y2.126
X2.2021Y1.5066
X2.2083Y3.4622
X2.2083Y3.4248
X2.2106Y1.3868
X2.2126Y1.9223
X2.2217Y3.0659
X2.2231Y1.6211
X2.2283Y0.5256
X2.2294Y2.1506
X2.232Y2.2773
X2.2367Y2.3374
X2.2437Y3.5626
X2.2461Y2.5413
X2.2539Y0.8209
X2.2539Y0.5571
X2.2576Y2.3018
X2.2579Y1.628
X2.2591Y3.0659
X2.2622Y1.0768
X2.2622Y1.0394
X2.2641Y1.3119
X2.2641Y1.2745
X2.2654Y2.4625
X2.2673Y3.3047
X2.2717Y1.3868
X2.2722Y2.1628
X2.2756Y3.1703
X2.2845Y1.6742
X2.2894Y1.5079
X2.2906Y2.1325
X2.2913Y0.9094
X2.296Y2.4803
X2.308Y2.1638
X2.3111Y1.4799
X2.3161Y3.0659
X2.3287Y0.5571
X2.3317Y2.4799
X2.3421Y3.3047
X2.352Y3.5626
X2.3543Y3.065
X2.3543Y2.7165
X2.3543Y2.6831
X2.3563Y1.9016
X2.3642Y2.9193
X2.3645Y1.7018
X2.3671Y2.479
X2.3769Y2.276
X2.3849Y2.827
X2.3849Y2.7916
X2.3878Y0.8563
X2.3895Y1.6768
X2.3917Y2.5807
X2.392Y1.9017
X2.3972Y3.4248
X2.3976Y3.25
X2.3976Y2.2003
X2.3977Y1.8445
X2.4012Y3.563
X2.4012Y3.3736
X2.4016Y1.6299
X2.4026Y2.2504
X2.4124Y1.4844
X2.4134Y1.3169
X2.4134Y1.0059
X2.4154Y0.7047
X2.4154Y0.6555
X2.4154Y0.5591
X2.4156Y1.8753
X2.4159Y2.8087
X2.4252Y0.9055
X2.4252Y3.0098
X2.4272Y2.2249
X2.4274Y2.0561
X2.4301Y2.4764
X2.4341Y2.5814
X2.4393Y1.4614
X2.4403Y1.7156
X2.4409Y1.8445
X2.4425Y3.2772
X2.4528Y2.2539
X2.4547Y1.5116
X2.4587Y2.3563
X2.4606Y3.0098
X2.4626Y2.4912
X2.4679Y1.0319
X2.4744Y0.8524
X2.4754Y3.2126
X2.476Y3.3736
X2.4783Y2.2264
X2.4783Y1.626
X2.4783Y0.998
X2.4941Y2.3563
X2.4965Y1.7679
X2.4971Y1.4095
X2.4976Y3.411
X2.5Y3.0925
X2.5Y2.7697
X2.502Y0.7047
X2.502Y0.6654
X2.5029Y2.2575
X2.5075Y3.4917
X2.5114Y3.5439
X2.5138Y1.626
X2.5251Y1.9705
X2.5251Y1.935
X2.5275Y1.7509
X2.5276Y2.2283
X2.5276Y2.0551
X2.5276Y1.5118
X2.5285Y2.2923
X2.5287Y1.7155
X2.5296Y2.0905
X2.5315Y1.8721
X2.5413Y2.9173
X2.5472Y1.6024
X2.5591Y0.689
X2.5609Y2.4114
X2.561Y0.748
X2.563Y2.7343
X2.563Y2.6004
X2.5689Y0.5512
X2.5693Y3.0335
X2.5736Y2.4606
X2.5906Y1.3169
X2.5963Y2.4124
X2.5994Y2.7343
X2.6Y3.2772
X2.6005Y3.411
X2.6102Y1.0049
X2.6103Y1.5492
X2.624Y0.9075
X2.6256Y3.5173
X2.6355Y1.665
X2.6358Y2.062
X2.6358Y1.2769
X2.6358Y1.0571
X2.6358Y0.748
X2.6398Y2.2087
X2.6399Y3.2398
X2.6404Y3.3736
X2.6417Y2.5059
X2.6417Y2.3839
X2.6417Y2.3465
X2.6417Y2.2717
X2.6447Y1.8061
X2.6457Y1.372
X2.6467Y1.4951
X2.6467Y1.2106
X2.6467Y3.4484
X2.6467Y3.3146
X2.6476Y2.125
X2.6486Y2.7343
X2.6496Y0.8819
X2.6594Y1.6161
X2.6594Y1.5551
X2.6594Y1.1476
X2.661Y3.5173
X2.6654Y3.0049
X2.6752Y2.8091
X2.6752Y1.0571
X2.6791Y2.4646
X2.6811Y0.5591
X2.6949Y0.748
X2.695Y0.7097
X2.7047Y2.7224
X2.7146Y1.9508
X2.7163Y1.9135
X2.7205Y3.1831
X2.7421Y2.7224
X2.7421Y2.3839
X2.7421Y2.3465
X2.7421Y2.3091
X2.7421Y2.1614
X2.7421Y2.124
X2.7461Y2.0256
X2.7461Y1.9882
X2.7461Y1.8406
X2.7461Y1.8031
X2.751Y1.2796
X2.752Y3.0177
X2.7638Y1.6474
X2.7681Y0.8478
X2.7736Y0.9035
X2.7752Y3.5419
X2.7815Y3.1831
X2.7854Y2.7156
X2.7913Y0.5591
X2.7972Y1.7933
X2.7992Y1.8445
X2.8031Y1.9409
X2.8031Y1.8858
X2.8031Y0.9744
X2.8079Y0.8555
X2.8083Y0.9109
X2.8137Y0.4764
X2.8185Y0.7402
X2.8189Y2.3061
X2.8189Y2.1634
X2.8268Y3.0
X2.8268Y2.811
X2.8283Y0.6544
X2.8366Y1.9882
X2.8504Y1.8799
X2.8583Y2.7402
X2.8602Y2.6378
X2.8602Y2.5236
X2.8622Y2.2028
X2.8661Y0.5984
X2.8809Y1.498
X2.8819Y1.5984
X2.8829Y1.6476
X2.8839Y2.1299
X2.8893Y1.1993
X2.8898Y1.8807
X2.8901Y1.3755
X2.8957Y3.0
X2.8972Y0.4764
X2.8996Y2.1634
X2.9006Y1.126
X2.9055Y1.752
X2.9114Y2.6383
X2.9114Y2.5231
X2.9187Y1.9959
X2.9203Y2.13
X2.9429Y2.9193
X2.9439Y1.4974
X2.9473Y2.4724
X2.9478Y1.5728
X2.9488Y1.6476
X2.9508Y1.1242
X2.9567Y1.2736
X2.9567Y1.1988
X2.9587Y2.689
X2.9626Y3.0433
X2.9626Y2.6398
X2.9626Y2.5217
X2.9862Y2.4218
X2.9864Y2.2482
X3.0059Y2.7717
X3.0256Y0.9921
X3.0354Y2.9154
X3.0433Y1.9685
X3.0492Y3.1811
X3.061Y1.7521
X3.0807Y1.5728
X3.0846Y1.1988
T3
X0.061Y1.9744
X0.0945Y3.7638
X0.8563Y2.1417
X1.4902Y1.374
X1.4902Y1.0591
X2.0807Y1.374
X2.0807Y1.0581
X2.8406Y2.3976
X3.063Y1.7972
X3.065Y2.0295
T5
X0.1378Y3.5217
X0.2165Y3.5217
X2.9626Y0.9134
X2.9626Y0.8346
X2.9626Y0.7559
X2.9626Y0.6772
X2.9626Y0.5984
X3.0413Y0.9134
X3.0413Y0.8346
X3.0413Y0.7559
X3.0413Y0.6772
X3.0413Y0.5984
T6
X0.5051Y0.4732
X0.5079Y3.7559
X0.5551Y0.3732
X0.5579Y3.6559
X0.6051Y0.4732
X0.6079Y3.7559
X0.6551Y0.3732
X0.6579Y3.6559
X0.7051Y0.4732
X0.7079Y3.7559
X0.7551Y0.3732
X0.7579Y3.6559
X1.1339Y3.7559
X1.135Y0.4732
X1.1839Y3.6559
X1.185Y0.3732
X1.2339Y3.7559
X1.235Y0.4732
X1.2839Y3.6559
X1.285Y0.3732
X1.3339Y3.7559
X1.335Y0.4732
X1.3839Y3.6559
X1.385Y0.3732
X1.7606Y3.7559
X1.7618Y0.4732
X1.8106Y3.6559
X1.8118Y0.3732
X1.8606Y3.7559
X1.8618Y0.4732
X1.9106Y3.6559
X1.9118Y0.3732
X1.9606Y3.7559
X1.9618Y0.4732
X2.0106Y3.6559
X2.0118Y0.3732
X2.3839Y3.7559
X2.3909Y0.4732
X2.4339Y3.6559
X2.4409Y0.3732
X2.4839Y3.7559
X2.4909Y0.4732
X2.5339Y3.6559
X2.5409Y0.3732
X2.5839Y3.7559
X2.5909Y0.4732
X2.6339Y3.6559
X2.6409Y0.3732
T7
X0.9932Y3.1157
X0.9932Y3.0157
X0.9932Y2.9157
X0.9932Y2.8157
X0.9932Y2.7157
X0.9932Y2.6157
X0.9932Y2.5157
X0.9932Y2.4157
X0.9932Y2.3157
X0.9932Y2.2157
X0.9932Y2.1157
X0.9932Y2.0157
X0.9932Y1.9157
X0.9932Y1.8157
X0.9932Y1.7157
X0.9932Y1.6157
X0.9932Y1.5157
X0.9932Y1.4157
X0.9932Y1.3157
X0.9932Y1.2157
X1.0932Y3.1157
X1.0932Y3.0157
X1.0932Y2.9157
X1.0932Y2.8157
X1.0932Y2.7157
X1.0932Y2.6157
X1.0932Y2.5157
X1.0932Y2.4157
X1.0932Y2.3157
X1.0932Y2.2157
X1.0932Y2.1157
X1.0932Y2.0157
X1.0932Y1.9157
X1.0932Y1.8157
X1.0932Y1.7157
X1.0932Y1.6157
X1.0932Y1.5157
X1.0932Y1.4157
X1.0932Y1.3157
X1.0932Y1.2157
X1.7606Y2.6831
X1.8606Y2.6831
X1.9606Y2.6831
X2.0606Y2.6831
T8
X1.4508Y1.748
T9
X0.1378Y3.3071
X0.1378Y1.0236
T10
X0.1969Y3.937
X0.1969Y0.1969
X2.9528Y3.937
X2.9528Y0.1969
T4
G00X0.0674Y1.5143
M15
G01X0.0989Y1.5143
M16
G05
G00X0.0674Y1.1742
M15
G01X0.0989Y1.1742
M16
G05
G00X0.2257Y1.5143
M15
G01X0.269Y1.5143
M16
G05
G00X0.2257Y1.1742
M15
G01X0.269Y1.1742
M16
G05
T0
M30
