%TF.GenerationSoftware,KiCad,Pcbnew,(7.0.0)*%
%TF.CreationDate,2023-03-20T14:45:52+00:00*%
%TF.ProjectId,RobotLegoController,526f626f-744c-4656-976f-436f6e74726f,REV A*%
%TF.SameCoordinates,PX7bfa480PY848f8c0*%
%TF.FileFunction,Paste,Top*%
%TF.FilePolarity,Positive*%
%FSLAX46Y46*%
G04 Gerber Fmt 4.6, Leading zero omitted, Abs format (unit mm)*
G04 Created by KiCad (PCBNEW (7.0.0)) date 2023-03-20 14:45:52*
%MOMM*%
%LPD*%
G01*
G04 APERTURE LIST*
G04 Aperture macros list*
%AMRoundRect*
0 Rectangle with rounded corners*
0 $1 Rounding radius*
0 $2 $3 $4 $5 $6 $7 $8 $9 X,Y pos of 4 corners*
0 Add a 4 corners polygon primitive as box body*
4,1,4,$2,$3,$4,$5,$6,$7,$8,$9,$2,$3,0*
0 Add four circle primitives for the rounded corners*
1,1,$1+$1,$2,$3*
1,1,$1+$1,$4,$5*
1,1,$1+$1,$6,$7*
1,1,$1+$1,$8,$9*
0 Add four rect primitives between the rounded corners*
20,1,$1+$1,$2,$3,$4,$5,0*
20,1,$1+$1,$4,$5,$6,$7,0*
20,1,$1+$1,$6,$7,$8,$9,0*
20,1,$1+$1,$8,$9,$2,$3,0*%
G04 Aperture macros list end*
%ADD10RoundRect,0.135000X-0.185000X0.135000X-0.185000X-0.135000X0.185000X-0.135000X0.185000X0.135000X0*%
%ADD11RoundRect,0.150000X0.150000X-0.587500X0.150000X0.587500X-0.150000X0.587500X-0.150000X-0.587500X0*%
%ADD12RoundRect,0.140000X0.140000X0.170000X-0.140000X0.170000X-0.140000X-0.170000X0.140000X-0.170000X0*%
%ADD13RoundRect,0.135000X-0.135000X-0.185000X0.135000X-0.185000X0.135000X0.185000X-0.135000X0.185000X0*%
%ADD14RoundRect,0.250000X-0.262500X-0.450000X0.262500X-0.450000X0.262500X0.450000X-0.262500X0.450000X0*%
%ADD15RoundRect,0.135000X0.185000X-0.135000X0.185000X0.135000X-0.185000X0.135000X-0.185000X-0.135000X0*%
%ADD16RoundRect,0.250000X-0.550000X1.500000X-0.550000X-1.500000X0.550000X-1.500000X0.550000X1.500000X0*%
%ADD17R,2.150000X5.500000*%
%ADD18RoundRect,0.150000X0.512500X0.150000X-0.512500X0.150000X-0.512500X-0.150000X0.512500X-0.150000X0*%
%ADD19RoundRect,0.062500X-0.117500X-0.062500X0.117500X-0.062500X0.117500X0.062500X-0.117500X0.062500X0*%
%ADD20RoundRect,0.250000X0.262500X0.450000X-0.262500X0.450000X-0.262500X-0.450000X0.262500X-0.450000X0*%
%ADD21RoundRect,0.250000X0.250000X0.475000X-0.250000X0.475000X-0.250000X-0.475000X0.250000X-0.475000X0*%
%ADD22RoundRect,0.225000X0.225000X0.250000X-0.225000X0.250000X-0.225000X-0.250000X0.225000X-0.250000X0*%
%ADD23RoundRect,0.135000X0.135000X0.185000X-0.135000X0.185000X-0.135000X-0.185000X0.135000X-0.185000X0*%
%ADD24RoundRect,0.112500X-0.187500X-0.112500X0.187500X-0.112500X0.187500X0.112500X-0.187500X0.112500X0*%
%ADD25RoundRect,0.140000X-0.140000X-0.170000X0.140000X-0.170000X0.140000X0.170000X-0.140000X0.170000X0*%
%ADD26RoundRect,0.150000X-0.150000X0.587500X-0.150000X-0.587500X0.150000X-0.587500X0.150000X0.587500X0*%
%ADD27RoundRect,0.112500X0.187500X0.112500X-0.187500X0.112500X-0.187500X-0.112500X0.187500X-0.112500X0*%
%ADD28RoundRect,0.140000X-0.170000X0.140000X-0.170000X-0.140000X0.170000X-0.140000X0.170000X0.140000X0*%
%ADD29RoundRect,0.200000X0.200000X0.275000X-0.200000X0.275000X-0.200000X-0.275000X0.200000X-0.275000X0*%
%ADD30RoundRect,0.225000X-0.225000X-0.250000X0.225000X-0.250000X0.225000X0.250000X-0.225000X0.250000X0*%
%ADD31RoundRect,0.150000X-0.825000X-0.150000X0.825000X-0.150000X0.825000X0.150000X-0.825000X0.150000X0*%
%ADD32RoundRect,0.075000X0.662500X0.075000X-0.662500X0.075000X-0.662500X-0.075000X0.662500X-0.075000X0*%
%ADD33RoundRect,0.075000X0.075000X0.662500X-0.075000X0.662500X-0.075000X-0.662500X0.075000X-0.662500X0*%
%ADD34RoundRect,0.150000X-0.587500X-0.150000X0.587500X-0.150000X0.587500X0.150000X-0.587500X0.150000X0*%
%ADD35RoundRect,0.250000X-0.475000X0.250000X-0.475000X-0.250000X0.475000X-0.250000X0.475000X0.250000X0*%
%ADD36RoundRect,0.140000X0.170000X-0.140000X0.170000X0.140000X-0.170000X0.140000X-0.170000X-0.140000X0*%
%ADD37R,2.500000X1.900000*%
%ADD38R,1.300000X1.550000*%
%ADD39RoundRect,0.250000X-1.500000X-0.550000X1.500000X-0.550000X1.500000X0.550000X-1.500000X0.550000X0*%
%ADD40RoundRect,0.150000X-0.150000X0.512500X-0.150000X-0.512500X0.150000X-0.512500X0.150000X0.512500X0*%
%ADD41RoundRect,0.062500X0.117500X0.062500X-0.117500X0.062500X-0.117500X-0.062500X0.117500X-0.062500X0*%
%ADD42RoundRect,0.147500X0.172500X-0.147500X0.172500X0.147500X-0.172500X0.147500X-0.172500X-0.147500X0*%
%ADD43RoundRect,0.250000X0.475000X-0.250000X0.475000X0.250000X-0.475000X0.250000X-0.475000X-0.250000X0*%
%ADD44RoundRect,0.150000X-0.650000X-0.150000X0.650000X-0.150000X0.650000X0.150000X-0.650000X0.150000X0*%
%ADD45RoundRect,0.240000X-0.240000X-0.385000X0.240000X-0.385000X0.240000X0.385000X-0.240000X0.385000X0*%
%ADD46RoundRect,0.225000X-0.250000X0.225000X-0.250000X-0.225000X0.250000X-0.225000X0.250000X0.225000X0*%
%ADD47RoundRect,0.147500X-0.172500X0.147500X-0.172500X-0.147500X0.172500X-0.147500X0.172500X0.147500X0*%
%ADD48RoundRect,0.087500X0.225000X0.087500X-0.225000X0.087500X-0.225000X-0.087500X0.225000X-0.087500X0*%
%ADD49RoundRect,0.087500X0.087500X0.225000X-0.087500X0.225000X-0.087500X-0.225000X0.087500X-0.225000X0*%
%ADD50RoundRect,0.232500X-0.232500X0.757500X-0.232500X-0.757500X0.232500X-0.757500X0.232500X0.757500X0*%
%ADD51RoundRect,0.100000X-0.100000X0.687500X-0.100000X-0.687500X0.100000X-0.687500X0.100000X0.687500X0*%
%ADD52RoundRect,0.250000X-0.312500X-1.450000X0.312500X-1.450000X0.312500X1.450000X-0.312500X1.450000X0*%
%ADD53RoundRect,0.225000X0.250000X-0.225000X0.250000X0.225000X-0.250000X0.225000X-0.250000X-0.225000X0*%
%ADD54RoundRect,0.150000X-0.200000X0.150000X-0.200000X-0.150000X0.200000X-0.150000X0.200000X0.150000X0*%
%ADD55RoundRect,0.250000X0.315000X-0.315000X0.315000X0.315000X-0.315000X0.315000X-0.315000X-0.315000X0*%
%ADD56RoundRect,0.062500X0.062500X-0.350000X0.062500X0.350000X-0.062500X0.350000X-0.062500X-0.350000X0*%
%ADD57RoundRect,0.062500X0.350000X-0.062500X0.350000X0.062500X-0.350000X0.062500X-0.350000X-0.062500X0*%
%ADD58RoundRect,0.150000X0.150000X-0.825000X0.150000X0.825000X-0.150000X0.825000X-0.150000X-0.825000X0*%
%ADD59RoundRect,0.147500X0.147500X0.172500X-0.147500X0.172500X-0.147500X-0.172500X0.147500X-0.172500X0*%
%ADD60RoundRect,0.250000X-0.250000X-0.475000X0.250000X-0.475000X0.250000X0.475000X-0.250000X0.475000X0*%
%ADD61RoundRect,0.062500X0.062500X-0.117500X0.062500X0.117500X-0.062500X0.117500X-0.062500X-0.117500X0*%
%ADD62R,0.800000X0.900000*%
%ADD63RoundRect,0.145000X-0.145000X-0.145000X0.145000X-0.145000X0.145000X0.145000X-0.145000X0.145000X0*%
%ADD64RoundRect,0.062500X-0.275000X-0.062500X0.275000X-0.062500X0.275000X0.062500X-0.275000X0.062500X0*%
%ADD65RoundRect,0.062500X-0.062500X-0.275000X0.062500X-0.275000X0.062500X0.275000X-0.062500X0.275000X0*%
%ADD66RoundRect,0.062500X-0.062500X0.117500X-0.062500X-0.117500X0.062500X-0.117500X0.062500X0.117500X0*%
%ADD67RoundRect,0.250000X0.450000X0.800000X-0.450000X0.800000X-0.450000X-0.800000X0.450000X-0.800000X0*%
%ADD68R,1.160000X0.600000*%
%ADD69R,1.160000X0.300000*%
%ADD70RoundRect,0.150000X0.200000X-0.150000X0.200000X0.150000X-0.200000X0.150000X-0.200000X-0.150000X0*%
%ADD71R,1.000000X1.500000*%
G04 APERTURE END LIST*
D10*
%TO.C,R68*%
X7100000Y27010000D03*
X7100000Y25990000D03*
%TD*%
D11*
%TO.C,D56*%
X61000000Y84362500D03*
X62900000Y84362500D03*
X61950000Y86237500D03*
%TD*%
D12*
%TO.C,C177*%
X48830000Y87850000D03*
X47870000Y87850000D03*
%TD*%
D11*
%TO.C,D44*%
X29250000Y84412500D03*
X31150000Y84412500D03*
X30200000Y86287500D03*
%TD*%
D13*
%TO.C,R205*%
X31890000Y82900000D03*
X32910000Y82900000D03*
%TD*%
D12*
%TO.C,C6*%
X56680000Y33350000D03*
X55720000Y33350000D03*
%TD*%
D14*
%TO.C,R243*%
X54367500Y79250000D03*
X56192500Y79250000D03*
%TD*%
D15*
%TO.C,R237*%
X48800000Y85940000D03*
X48800000Y86960000D03*
%TD*%
D16*
%TO.C,C66*%
X4200000Y58900000D03*
X4200000Y53300000D03*
%TD*%
D17*
%TO.C,L3*%
X11074999Y76499999D03*
X14924999Y76499999D03*
%TD*%
D18*
%TO.C,U15*%
X20637500Y82250000D03*
X20637500Y83200000D03*
X20637500Y84150000D03*
X18362500Y84150000D03*
X18362500Y82250000D03*
%TD*%
D19*
%TO.C,D39*%
X54847500Y14850000D03*
X54007500Y14850000D03*
%TD*%
D20*
%TO.C,R207*%
X36237500Y79237500D03*
X34412500Y79237500D03*
%TD*%
D13*
%TO.C,R185*%
X50190000Y80050000D03*
X51210000Y80050000D03*
%TD*%
D21*
%TO.C,C51*%
X17750000Y50600000D03*
X15850000Y50600000D03*
%TD*%
D15*
%TO.C,R172*%
X68850000Y26290000D03*
X68850000Y27310000D03*
%TD*%
D22*
%TO.C,C53*%
X4175000Y93500000D03*
X2625000Y93500000D03*
%TD*%
D10*
%TO.C,R12*%
X59450000Y34860000D03*
X59450000Y33840000D03*
%TD*%
D23*
%TO.C,R188*%
X10310000Y86950000D03*
X9290000Y86950000D03*
%TD*%
D12*
%TO.C,C122*%
X53050000Y15800000D03*
X52090000Y15800000D03*
%TD*%
D13*
%TO.C,R152*%
X76700000Y53750000D03*
X77720000Y53750000D03*
%TD*%
%TO.C,R130*%
X42490000Y18850000D03*
X43510000Y18850000D03*
%TD*%
D23*
%TO.C,R58*%
X31710000Y38050000D03*
X30690000Y38050000D03*
%TD*%
D15*
%TO.C,R140*%
X48150000Y14840000D03*
X48150000Y15860000D03*
%TD*%
D24*
%TO.C,D50*%
X16200000Y89300000D03*
X18300000Y89300000D03*
%TD*%
D12*
%TO.C,C178*%
X64630000Y87900000D03*
X63670000Y87900000D03*
%TD*%
D25*
%TO.C,C176*%
X53870000Y87850000D03*
X54830000Y87850000D03*
%TD*%
%TO.C,C30*%
X67920000Y54900000D03*
X68880000Y54900000D03*
%TD*%
D12*
%TO.C,C121*%
X62280000Y15800000D03*
X61320000Y15800000D03*
%TD*%
D10*
%TO.C,R75*%
X28500000Y17770000D03*
X28500000Y16750000D03*
%TD*%
%TO.C,R107*%
X54400000Y27310000D03*
X54400000Y26290000D03*
%TD*%
D15*
%TO.C,R120*%
X69800000Y36040000D03*
X69800000Y37060000D03*
%TD*%
D10*
%TO.C,R74*%
X12500000Y17760000D03*
X12500000Y16740000D03*
%TD*%
D13*
%TO.C,R150*%
X52040000Y16750000D03*
X53060000Y16750000D03*
%TD*%
D26*
%TO.C,D15*%
X15650000Y19137500D03*
X13750000Y19137500D03*
X14700000Y17262500D03*
%TD*%
D27*
%TO.C,D49*%
X22850000Y89350000D03*
X20750000Y89350000D03*
%TD*%
%TO.C,D61*%
X54650000Y89300000D03*
X52550000Y89300000D03*
%TD*%
D28*
%TO.C,C72*%
X22950000Y60830000D03*
X22950000Y59870000D03*
%TD*%
D13*
%TO.C,R132*%
X43980000Y24500000D03*
X45000000Y24500000D03*
%TD*%
D29*
%TO.C,F10*%
X62575000Y88000000D03*
X60925000Y88000000D03*
%TD*%
D23*
%TO.C,R176*%
X12176382Y85992322D03*
X11156382Y85992322D03*
%TD*%
D13*
%TO.C,R151*%
X68040000Y16750000D03*
X69060000Y16750000D03*
%TD*%
D30*
%TO.C,C140*%
X44825000Y70150000D03*
X46375000Y70150000D03*
%TD*%
D13*
%TO.C,R198*%
X37990000Y71350000D03*
X39010000Y71350000D03*
%TD*%
D15*
%TO.C,R123*%
X78300000Y38040000D03*
X78300000Y39060000D03*
%TD*%
D13*
%TO.C,R63*%
X8320000Y54950000D03*
X9340000Y54950000D03*
%TD*%
D23*
%TO.C,R54*%
X31710000Y37050000D03*
X30690000Y37050000D03*
%TD*%
D31*
%TO.C,U10*%
X71575000Y43760000D03*
X71575000Y42490000D03*
X71575000Y41220000D03*
X71575000Y39950000D03*
X71575000Y38680000D03*
X71575000Y37410000D03*
X71575000Y36140000D03*
X76525000Y36140000D03*
X76525000Y37410000D03*
X76525000Y38680000D03*
X76525000Y39950000D03*
X76525000Y41220000D03*
X76525000Y42490000D03*
X76525000Y43760000D03*
%TD*%
D26*
%TO.C,D20*%
X35050000Y20237500D03*
X33150000Y20237500D03*
X34100000Y18362500D03*
%TD*%
D13*
%TO.C,R82*%
X12090000Y24450000D03*
X13110000Y24450000D03*
%TD*%
D23*
%TO.C,R49*%
X22410000Y43450000D03*
X21390000Y43450000D03*
%TD*%
D10*
%TO.C,R167*%
X47800000Y25370000D03*
X47800000Y24350000D03*
%TD*%
D13*
%TO.C,R6*%
X55700062Y32405119D03*
X56720062Y32405119D03*
%TD*%
D11*
%TO.C,D59*%
X41750000Y82662500D03*
X43650000Y82662500D03*
X42700000Y84537500D03*
%TD*%
D13*
%TO.C,R30*%
X8990000Y32700000D03*
X10010000Y32700000D03*
%TD*%
D24*
%TO.C,D62*%
X47950000Y89300000D03*
X50050000Y89300000D03*
%TD*%
D15*
%TO.C,R141*%
X64150000Y14790000D03*
X64150000Y15810000D03*
%TD*%
D23*
%TO.C,R102*%
X18360000Y27150000D03*
X17340000Y27150000D03*
%TD*%
D24*
%TO.C,D63*%
X63800000Y89350000D03*
X65900000Y89350000D03*
%TD*%
D10*
%TO.C,R170*%
X69850000Y27310000D03*
X69850000Y26290000D03*
%TD*%
D26*
%TO.C,Q13*%
X78400000Y49537500D03*
X76500000Y49537500D03*
X77450000Y47662500D03*
%TD*%
D32*
%TO.C,U2*%
X65562500Y41850000D03*
X65562500Y42350000D03*
X65562500Y42850000D03*
X65562500Y43350000D03*
X65562500Y43850000D03*
X65562500Y44350000D03*
X65562500Y44850000D03*
X65562500Y45350000D03*
X65562500Y45850000D03*
X65562500Y46350000D03*
X65562500Y46850000D03*
X65562500Y47350000D03*
X65562500Y47850000D03*
X65562500Y48350000D03*
X65562500Y48850000D03*
X65562500Y49350000D03*
X65562500Y49850000D03*
X65562500Y50350000D03*
X65562500Y50850000D03*
X65562500Y51350000D03*
X65562500Y51850000D03*
X65562500Y52350000D03*
X65562500Y52850000D03*
X65562500Y53350000D03*
X65562500Y53850000D03*
X65562500Y54350000D03*
X65562500Y54850000D03*
X65562500Y55350000D03*
X65562500Y55850000D03*
X65562500Y56350000D03*
X65562500Y56850000D03*
X65562500Y57350000D03*
X65562500Y57850000D03*
X65562500Y58350000D03*
X65562500Y58850000D03*
X65562500Y59350000D03*
D33*
X63650000Y61262500D03*
X63150000Y61262500D03*
X62650000Y61262500D03*
X62150000Y61262500D03*
X61650000Y61262500D03*
X61150000Y61262500D03*
X60650000Y61262500D03*
X60150000Y61262500D03*
X59650000Y61262500D03*
X59150000Y61262500D03*
X58650000Y61262500D03*
X58150000Y61262500D03*
X57650000Y61262500D03*
X57150000Y61262500D03*
X56650000Y61262500D03*
X56150000Y61262500D03*
X55650000Y61262500D03*
X55150000Y61262500D03*
X54650000Y61262500D03*
X54150000Y61262500D03*
X53650000Y61262500D03*
X53150000Y61262500D03*
X52650000Y61262500D03*
X52150000Y61262500D03*
X51650000Y61262500D03*
X51150000Y61262500D03*
X50650000Y61262500D03*
X50150000Y61262500D03*
X49650000Y61262500D03*
X49150000Y61262500D03*
X48650000Y61262500D03*
X48150000Y61262500D03*
X47650000Y61262500D03*
X47150000Y61262500D03*
X46650000Y61262500D03*
X46150000Y61262500D03*
D32*
X44237500Y59350000D03*
X44237500Y58850000D03*
X44237500Y58350000D03*
X44237500Y57850000D03*
X44237500Y57350000D03*
X44237500Y56850000D03*
X44237500Y56350000D03*
X44237500Y55850000D03*
X44237500Y55350000D03*
X44237500Y54850000D03*
X44237500Y54350000D03*
X44237500Y53850000D03*
X44237500Y53350000D03*
X44237500Y52850000D03*
X44237500Y52350000D03*
X44237500Y51850000D03*
X44237500Y51350000D03*
X44237500Y50850000D03*
X44237500Y50350000D03*
X44237500Y49850000D03*
X44237500Y49350000D03*
X44237500Y48850000D03*
X44237500Y48350000D03*
X44237500Y47850000D03*
X44237500Y47350000D03*
X44237500Y46850000D03*
X44237500Y46350000D03*
X44237500Y45850000D03*
X44237500Y45350000D03*
X44237500Y44850000D03*
X44237500Y44350000D03*
X44237500Y43850000D03*
X44237500Y43350000D03*
X44237500Y42850000D03*
X44237500Y42350000D03*
X44237500Y41850000D03*
D33*
X46150000Y39937500D03*
X46650000Y39937500D03*
X47150000Y39937500D03*
X47650000Y39937500D03*
X48150000Y39937500D03*
X48650000Y39937500D03*
X49150000Y39937500D03*
X49650000Y39937500D03*
X50150000Y39937500D03*
X50650000Y39937500D03*
X51150000Y39937500D03*
X51650000Y39937500D03*
X52150000Y39937500D03*
X52650000Y39937500D03*
X53150000Y39937500D03*
X53650000Y39937500D03*
X54150000Y39937500D03*
X54650000Y39937500D03*
X55150000Y39937500D03*
X55650000Y39937500D03*
X56150000Y39937500D03*
X56650000Y39937500D03*
X57150000Y39937500D03*
X57650000Y39937500D03*
X58150000Y39937500D03*
X58650000Y39937500D03*
X59150000Y39937500D03*
X59650000Y39937500D03*
X60150000Y39937500D03*
X60650000Y39937500D03*
X61150000Y39937500D03*
X61650000Y39937500D03*
X62150000Y39937500D03*
X62650000Y39937500D03*
X63150000Y39937500D03*
X63650000Y39937500D03*
%TD*%
D34*
%TO.C,Q27*%
X53112500Y24850000D03*
X53112500Y22950000D03*
X54987500Y23900000D03*
%TD*%
D35*
%TO.C,C79*%
X21300000Y76050000D03*
X21300000Y74150000D03*
%TD*%
D10*
%TO.C,R142*%
X47200000Y15860000D03*
X47200000Y14840000D03*
%TD*%
D25*
%TO.C,C129*%
X67920000Y61500000D03*
X68880000Y61500000D03*
%TD*%
D13*
%TO.C,R85*%
X24690000Y18750000D03*
X25710000Y18750000D03*
%TD*%
D12*
%TO.C,C136*%
X10256436Y88853224D03*
X9296436Y88853224D03*
%TD*%
D13*
%TO.C,R101*%
X36140000Y16750000D03*
X37160000Y16750000D03*
%TD*%
D34*
%TO.C,Q12*%
X65262500Y24850000D03*
X65262500Y22950000D03*
X67137500Y23900000D03*
%TD*%
D25*
%TO.C,C154*%
X37890000Y87850000D03*
X38850000Y87850000D03*
%TD*%
D36*
%TO.C,C18*%
X67950000Y55820000D03*
X67950000Y56780000D03*
%TD*%
D28*
%TO.C,C145*%
X32850000Y85080000D03*
X32850000Y84120000D03*
%TD*%
D13*
%TO.C,R26*%
X71890000Y45550000D03*
X72910000Y45550000D03*
%TD*%
D15*
%TO.C,R202*%
X16950000Y85940000D03*
X16950000Y86960000D03*
%TD*%
D18*
%TO.C,U13*%
X20637500Y85650000D03*
X20637500Y86600000D03*
X20637500Y87550000D03*
X18362500Y87550000D03*
X18362500Y85650000D03*
%TD*%
D15*
%TO.C,R231*%
X67150000Y70340000D03*
X67150000Y71360000D03*
%TD*%
D37*
%TO.C,L1*%
X12099999Y46299999D03*
X12099999Y50399999D03*
%TD*%
D38*
%TO.C,SW2*%
X65799999Y34849999D03*
X65799999Y26899999D03*
X61299999Y34849999D03*
X61299999Y26899999D03*
%TD*%
D23*
%TO.C,R193*%
X49310000Y71350000D03*
X48290000Y71350000D03*
%TD*%
D13*
%TO.C,R60*%
X19790000Y71000000D03*
X20810000Y71000000D03*
%TD*%
D36*
%TO.C,C80*%
X18950000Y56820000D03*
X18950000Y57780000D03*
%TD*%
D25*
%TO.C,C126*%
X53970000Y15800000D03*
X54930000Y15800000D03*
%TD*%
D13*
%TO.C,R29*%
X9000000Y35700000D03*
X10020000Y35700000D03*
%TD*%
D29*
%TO.C,F8*%
X30775000Y88000000D03*
X29125000Y88000000D03*
%TD*%
D15*
%TO.C,R10*%
X54800000Y32390000D03*
X54800000Y33410000D03*
%TD*%
D28*
%TO.C,C170*%
X64600000Y85100000D03*
X64600000Y84140000D03*
%TD*%
D23*
%TO.C,R196*%
X42810000Y70400000D03*
X41790000Y70400000D03*
%TD*%
D15*
%TO.C,R116*%
X23900000Y14840000D03*
X23900000Y15860000D03*
%TD*%
D10*
%TO.C,R144*%
X47800000Y23510000D03*
X47800000Y22490000D03*
%TD*%
D15*
%TO.C,R204*%
X16950000Y82240000D03*
X16950000Y83260000D03*
%TD*%
D36*
%TO.C,C113*%
X69800000Y39520000D03*
X69800000Y40480000D03*
%TD*%
D10*
%TO.C,R77*%
X28500000Y19670000D03*
X28500000Y18650000D03*
%TD*%
D13*
%TO.C,R209*%
X42966891Y86942531D03*
X43986891Y86942531D03*
%TD*%
D39*
%TO.C,C148*%
X32250000Y62950000D03*
X37850000Y62950000D03*
%TD*%
D22*
%TO.C,C60*%
X14375000Y43400000D03*
X12825000Y43400000D03*
%TD*%
D23*
%TO.C,R66*%
X10060000Y29850000D03*
X9040000Y29850000D03*
%TD*%
D12*
%TO.C,C100*%
X14380000Y15800000D03*
X13420000Y15800000D03*
%TD*%
D13*
%TO.C,R32*%
X8990000Y34700000D03*
X10010000Y34700000D03*
%TD*%
D15*
%TO.C,R5*%
X31250000Y58840000D03*
X31250000Y59860000D03*
%TD*%
D36*
%TO.C,C158*%
X61650000Y63770000D03*
X61650000Y64730000D03*
%TD*%
D15*
%TO.C,R62*%
X18930000Y54540000D03*
X18930000Y55560000D03*
%TD*%
D30*
%TO.C,C35*%
X45375000Y64800000D03*
X46925000Y64800000D03*
%TD*%
D28*
%TO.C,C28*%
X41750000Y54580000D03*
X41750000Y53620000D03*
%TD*%
D29*
%TO.C,F6*%
X66925000Y15100000D03*
X65275000Y15100000D03*
%TD*%
D30*
%TO.C,C36*%
X50975000Y63800000D03*
X52525000Y63800000D03*
%TD*%
D36*
%TO.C,C29*%
X41750000Y40170000D03*
X41750000Y41130000D03*
%TD*%
D26*
%TO.C,D34*%
X66950000Y20237500D03*
X65050000Y20237500D03*
X66000000Y18362500D03*
%TD*%
D13*
%TO.C,R3*%
X37240000Y56250000D03*
X38260000Y56250000D03*
%TD*%
%TO.C,R162*%
X52380000Y21700000D03*
X53400000Y21700000D03*
%TD*%
D40*
%TO.C,U7*%
X3500000Y45675000D03*
X2550000Y45675000D03*
X1600000Y45675000D03*
X1600000Y43400000D03*
X3500000Y43400000D03*
%TD*%
D23*
%TO.C,R136*%
X69910000Y34250000D03*
X68890000Y34250000D03*
%TD*%
D15*
%TO.C,R90*%
X16250000Y14840000D03*
X16250000Y15860000D03*
%TD*%
D41*
%TO.C,D57*%
X41230000Y89800000D03*
X42070000Y89800000D03*
%TD*%
D30*
%TO.C,C160*%
X60975000Y89500000D03*
X62525000Y89500000D03*
%TD*%
D10*
%TO.C,R71*%
X12000000Y28810000D03*
X12000000Y27790000D03*
%TD*%
D19*
%TO.C,D41*%
X12070000Y89800000D03*
X11230000Y89800000D03*
%TD*%
D25*
%TO.C,C87*%
X67970000Y46750000D03*
X68930000Y46750000D03*
%TD*%
D16*
%TO.C,C69*%
X4100000Y73400000D03*
X4100000Y67800000D03*
%TD*%
D15*
%TO.C,R106*%
X55400000Y26290000D03*
X55400000Y27310000D03*
%TD*%
D28*
%TO.C,C41*%
X9050000Y31780000D03*
X9050000Y30820000D03*
%TD*%
D15*
%TO.C,R121*%
X78300000Y36129134D03*
X78300000Y37149134D03*
%TD*%
D10*
%TO.C,R154*%
X75250000Y49210000D03*
X75250000Y48190000D03*
%TD*%
D25*
%TO.C,C156*%
X58820000Y88850000D03*
X59780000Y88850000D03*
%TD*%
D36*
%TO.C,C46*%
X19300000Y33470000D03*
X19300000Y34430000D03*
%TD*%
D12*
%TO.C,C153*%
X32880000Y87850000D03*
X31920000Y87850000D03*
%TD*%
D36*
%TO.C,C20*%
X41750000Y42020000D03*
X41750000Y42980000D03*
%TD*%
D23*
%TO.C,R179*%
X49310000Y80050000D03*
X48290000Y80050000D03*
%TD*%
D10*
%TO.C,R126*%
X44400000Y19660000D03*
X44400000Y18640000D03*
%TD*%
D25*
%TO.C,C167*%
X51320000Y81000000D03*
X52280000Y81000000D03*
%TD*%
D15*
%TO.C,R160*%
X55600000Y19740000D03*
X55600000Y20760000D03*
%TD*%
D29*
%TO.C,F9*%
X46725000Y88000000D03*
X45075000Y88000000D03*
%TD*%
D13*
%TO.C,R80*%
X10540000Y18800000D03*
X11560000Y18800000D03*
%TD*%
D11*
%TO.C,D14*%
X25350000Y15400000D03*
X27250000Y15400000D03*
X26300000Y17275000D03*
%TD*%
D27*
%TO.C,D52*%
X38750000Y89300000D03*
X36650000Y89300000D03*
%TD*%
D13*
%TO.C,R51*%
X33840000Y40650000D03*
X34860000Y40650000D03*
%TD*%
D38*
%TO.C,SW5*%
X46299999Y26899999D03*
X46299999Y34849999D03*
X50799999Y26899999D03*
X50799999Y34849999D03*
%TD*%
D25*
%TO.C,C103*%
X18670000Y21750000D03*
X19630000Y21750000D03*
%TD*%
D42*
%TO.C,D1*%
X52850000Y32415000D03*
X52850000Y33385000D03*
%TD*%
D23*
%TO.C,R222*%
X77460000Y80050000D03*
X76440000Y80050000D03*
%TD*%
D25*
%TO.C,C106*%
X22020000Y15850000D03*
X22980000Y15850000D03*
%TD*%
D13*
%TO.C,R2*%
X37240000Y54250000D03*
X38260000Y54250000D03*
%TD*%
D43*
%TO.C,C44*%
X7100000Y45850000D03*
X7100000Y47750000D03*
%TD*%
D13*
%TO.C,R221*%
X62340000Y80050000D03*
X63360000Y80050000D03*
%TD*%
D23*
%TO.C,R104*%
X18360000Y26150000D03*
X17340000Y26150000D03*
%TD*%
D36*
%TO.C,C133*%
X58800000Y63770000D03*
X58800000Y64730000D03*
%TD*%
D11*
%TO.C,Q31*%
X38300000Y72862500D03*
X40200000Y72862500D03*
X39250000Y74737500D03*
%TD*%
D12*
%TO.C,C104*%
X37080000Y15800000D03*
X36120000Y15800000D03*
%TD*%
D25*
%TO.C,C107*%
X38020000Y15800000D03*
X38980000Y15800000D03*
%TD*%
D10*
%TO.C,R119*%
X31900000Y25400000D03*
X31900000Y24380000D03*
%TD*%
D30*
%TO.C,C110*%
X41275000Y23900000D03*
X42825000Y23900000D03*
%TD*%
D26*
%TO.C,Q29*%
X40200000Y78587500D03*
X38300000Y78587500D03*
X39250000Y76712500D03*
%TD*%
D25*
%TO.C,C128*%
X66270000Y62600000D03*
X67230000Y62600000D03*
%TD*%
D21*
%TO.C,C40*%
X43900000Y64050000D03*
X42000000Y64050000D03*
%TD*%
D12*
%TO.C,C143*%
X32880000Y81950000D03*
X31920000Y81950000D03*
%TD*%
D36*
%TO.C,C116*%
X60400000Y14870000D03*
X60400000Y15830000D03*
%TD*%
D23*
%TO.C,R200*%
X40910000Y71350000D03*
X39890000Y71350000D03*
%TD*%
D44*
%TO.C,U4*%
X31050000Y52155000D03*
X31050000Y50885000D03*
X31050000Y49615000D03*
X31050000Y48345000D03*
X38250000Y48345000D03*
X38250000Y49615000D03*
X38250000Y50885000D03*
X38250000Y52155000D03*
%TD*%
D10*
%TO.C,R57*%
X22400000Y45410000D03*
X22400000Y44390000D03*
%TD*%
D11*
%TO.C,Q36*%
X75250000Y72812500D03*
X77150000Y72812500D03*
X76200000Y74687500D03*
%TD*%
D13*
%TO.C,R83*%
X28040000Y24500000D03*
X29060000Y24500000D03*
%TD*%
D34*
%TO.C,Q9*%
X33400000Y24850000D03*
X33400000Y22950000D03*
X35275000Y23900000D03*
%TD*%
D45*
%TO.C,U8*%
X13980000Y56955000D03*
X13980000Y55455000D03*
X15120000Y56955000D03*
X15120000Y55455000D03*
D31*
X12075000Y58110000D03*
X12075000Y56840000D03*
X12075000Y55570000D03*
X12075000Y54300000D03*
X17025000Y54300000D03*
X17025000Y55570000D03*
X17025000Y56840000D03*
X17025000Y58110000D03*
%TD*%
D10*
%TO.C,R13*%
X39850000Y34610000D03*
X39850000Y33590000D03*
%TD*%
D46*
%TO.C,C19*%
X40550000Y42625000D03*
X40550000Y41075000D03*
%TD*%
D30*
%TO.C,C114*%
X49325000Y16650000D03*
X50875000Y16650000D03*
%TD*%
D25*
%TO.C,C131*%
X27070000Y88850000D03*
X28030000Y88850000D03*
%TD*%
D46*
%TO.C,C112*%
X68600000Y41075000D03*
X68600000Y39525000D03*
%TD*%
D26*
%TO.C,Q18*%
X59150000Y22087500D03*
X57250000Y22087500D03*
X58200000Y20212500D03*
%TD*%
D34*
%TO.C,Q28*%
X69162500Y24850000D03*
X69162500Y22950000D03*
X71037500Y23900000D03*
%TD*%
D25*
%TO.C,C146*%
X33095000Y69087500D03*
X34055000Y69087500D03*
%TD*%
D47*
%TO.C,D2*%
X67850000Y33402500D03*
X67850000Y32432500D03*
%TD*%
D36*
%TO.C,C68*%
X10350000Y57520000D03*
X10350000Y58480000D03*
%TD*%
D25*
%TO.C,C58*%
X67970000Y50500000D03*
X68930000Y50500000D03*
%TD*%
D13*
%TO.C,R174*%
X11150051Y86963599D03*
X12170051Y86963599D03*
%TD*%
D35*
%TO.C,C73*%
X17450000Y61600000D03*
X17450000Y59700000D03*
%TD*%
D42*
%TO.C,D3*%
X37850000Y32415000D03*
X37850000Y33385000D03*
%TD*%
D15*
%TO.C,R103*%
X39350000Y26090000D03*
X39350000Y27110000D03*
%TD*%
D10*
%TO.C,R127*%
X60400000Y19610000D03*
X60400000Y18590000D03*
%TD*%
%TO.C,R23*%
X53850000Y33410000D03*
X53850000Y32390000D03*
%TD*%
D28*
%TO.C,C42*%
X6600000Y42680000D03*
X6600000Y41720000D03*
%TD*%
D13*
%TO.C,R11*%
X35790000Y36850000D03*
X36810000Y36850000D03*
%TD*%
D19*
%TO.C,D53*%
X43957500Y89800000D03*
X43117500Y89800000D03*
%TD*%
D17*
%TO.C,L2*%
X11224999Y61999999D03*
X15074999Y61999999D03*
%TD*%
D25*
%TO.C,C86*%
X67970000Y51450000D03*
X68930000Y51450000D03*
%TD*%
%TO.C,C125*%
X66570000Y21700000D03*
X67530000Y21700000D03*
%TD*%
D13*
%TO.C,R227*%
X65190000Y71300000D03*
X66210000Y71300000D03*
%TD*%
%TO.C,R233*%
X62340000Y71350000D03*
X63360000Y71350000D03*
%TD*%
D30*
%TO.C,C37*%
X40175000Y55750000D03*
X41725000Y55750000D03*
%TD*%
D36*
%TO.C,C164*%
X72600000Y70420000D03*
X72600000Y71380000D03*
%TD*%
D41*
%TO.C,D21*%
X20230000Y14900000D03*
X21070000Y14900000D03*
%TD*%
D30*
%TO.C,C165*%
X69175000Y70150000D03*
X70725000Y70150000D03*
%TD*%
D23*
%TO.C,R108*%
X59260000Y26400000D03*
X58240000Y26400000D03*
%TD*%
D48*
%TO.C,U1*%
X35812500Y54250000D03*
X35812500Y54750000D03*
X35812500Y55250000D03*
X35812500Y55750000D03*
D49*
X35150000Y55912500D03*
X34650000Y55912500D03*
X34150000Y55912500D03*
D48*
X33487500Y55750000D03*
X33487500Y55250000D03*
X33487500Y54750000D03*
X33487500Y54250000D03*
D49*
X34150000Y54087500D03*
X34650000Y54087500D03*
X35150000Y54087500D03*
%TD*%
D50*
%TO.C,U17*%
X34130000Y73700000D03*
X32970000Y73700000D03*
D51*
X35825000Y76562500D03*
X35175000Y76562500D03*
X34525000Y76562500D03*
X33875000Y76562500D03*
X33225000Y76562500D03*
X32575000Y76562500D03*
X31925000Y76562500D03*
X31275000Y76562500D03*
X31275000Y70837500D03*
X31925000Y70837500D03*
X32575000Y70837500D03*
X33225000Y70837500D03*
X33875000Y70837500D03*
X34525000Y70837500D03*
X35175000Y70837500D03*
X35825000Y70837500D03*
%TD*%
D10*
%TO.C,R105*%
X40350000Y27110000D03*
X40350000Y26090000D03*
%TD*%
D15*
%TO.C,R110*%
X23700000Y19790000D03*
X23700000Y20810000D03*
%TD*%
%TO.C,R91*%
X32250000Y14840000D03*
X32250000Y15860000D03*
%TD*%
D10*
%TO.C,R95*%
X31300000Y15860000D03*
X31300000Y14840000D03*
%TD*%
D23*
%TO.C,R113*%
X23060000Y16800000D03*
X22040000Y16800000D03*
%TD*%
D12*
%TO.C,C141*%
X46380000Y71400000D03*
X45420000Y71400000D03*
%TD*%
D52*
%TO.C,F2*%
X2362500Y77500000D03*
X6637500Y77500000D03*
%TD*%
D26*
%TO.C,D33*%
X50950000Y20237500D03*
X49050000Y20237500D03*
X50000000Y18362500D03*
%TD*%
D23*
%TO.C,R224*%
X57910000Y86950000D03*
X56890000Y86950000D03*
%TD*%
D12*
%TO.C,C5*%
X35130000Y57300000D03*
X34170000Y57300000D03*
%TD*%
D39*
%TO.C,C173*%
X68350000Y65550000D03*
X73950000Y65550000D03*
%TD*%
D47*
%TO.C,D9*%
X18600000Y38235000D03*
X18600000Y37265000D03*
%TD*%
D23*
%TO.C,R219*%
X65260000Y80050000D03*
X64240000Y80050000D03*
%TD*%
D10*
%TO.C,R93*%
X15900000Y21610000D03*
X15900000Y20590000D03*
%TD*%
D25*
%TO.C,C123*%
X50570000Y21700000D03*
X51530000Y21700000D03*
%TD*%
D36*
%TO.C,C4*%
X32100000Y55770000D03*
X32100000Y56730000D03*
%TD*%
D52*
%TO.C,F1*%
X2362500Y63000000D03*
X6637500Y63000000D03*
%TD*%
D10*
%TO.C,R28*%
X5600000Y46560000D03*
X5600000Y45540000D03*
%TD*%
D23*
%TO.C,R215*%
X43997858Y87896027D03*
X42977858Y87896027D03*
%TD*%
D34*
%TO.C,Q16*%
X37250000Y24850000D03*
X37250000Y22950000D03*
X39125000Y23900000D03*
%TD*%
D23*
%TO.C,R122*%
X69920000Y37950000D03*
X68900000Y37950000D03*
%TD*%
D13*
%TO.C,R135*%
X56540000Y18750000D03*
X57560000Y18750000D03*
%TD*%
D19*
%TO.C,D26*%
X38950000Y14850000D03*
X38110000Y14850000D03*
%TD*%
D11*
%TO.C,Q35*%
X62650000Y72862500D03*
X64550000Y72862500D03*
X63600000Y74737500D03*
%TD*%
D10*
%TO.C,R146*%
X63800000Y21560000D03*
X63800000Y20540000D03*
%TD*%
D47*
%TO.C,D8*%
X19550000Y38235000D03*
X19550000Y37265000D03*
%TD*%
D13*
%TO.C,R17*%
X37890000Y46850000D03*
X38910000Y46850000D03*
%TD*%
D15*
%TO.C,R235*%
X64300000Y70340000D03*
X64300000Y71360000D03*
%TD*%
%TO.C,R52*%
X17650000Y39140000D03*
X17650000Y40160000D03*
%TD*%
D38*
%TO.C,SW3*%
X7049999Y21224999D03*
X7049999Y13274999D03*
X2549999Y21224999D03*
X2549999Y13274999D03*
%TD*%
D36*
%TO.C,C8*%
X59450000Y31770000D03*
X59450000Y32730000D03*
%TD*%
D13*
%TO.C,R230*%
X56934373Y87899174D03*
X57954373Y87899174D03*
%TD*%
D10*
%TO.C,R87*%
X78250000Y43760000D03*
X78250000Y42740000D03*
%TD*%
D36*
%TO.C,C115*%
X44400000Y14920000D03*
X44400000Y15880000D03*
%TD*%
D19*
%TO.C,D25*%
X22920000Y14900000D03*
X22080000Y14900000D03*
%TD*%
D36*
%TO.C,C81*%
X18800000Y71300000D03*
X18800000Y72260000D03*
%TD*%
D35*
%TO.C,C74*%
X19450000Y61550000D03*
X19450000Y59650000D03*
%TD*%
D22*
%TO.C,C13*%
X57675000Y36300000D03*
X56125000Y36300000D03*
%TD*%
D10*
%TO.C,R228*%
X73550000Y71410000D03*
X73550000Y70390000D03*
%TD*%
D23*
%TO.C,R41*%
X22410000Y41450000D03*
X21390000Y41450000D03*
%TD*%
D28*
%TO.C,C76*%
X22800000Y75580000D03*
X22800000Y74620000D03*
%TD*%
D30*
%TO.C,C99*%
X33425000Y16650000D03*
X34975000Y16650000D03*
%TD*%
D10*
%TO.C,R145*%
X63200000Y15810000D03*
X63200000Y14790000D03*
%TD*%
D28*
%TO.C,C22*%
X70612500Y51930000D03*
X70612500Y50970000D03*
%TD*%
D25*
%TO.C,C14*%
X56420000Y37500000D03*
X57380000Y37500000D03*
%TD*%
D11*
%TO.C,D48*%
X25800000Y82625000D03*
X27700000Y82625000D03*
X26750000Y84500000D03*
%TD*%
D21*
%TO.C,C61*%
X3150000Y47600000D03*
X1250000Y47600000D03*
%TD*%
D30*
%TO.C,C90*%
X9375000Y23850000D03*
X10925000Y23850000D03*
%TD*%
D28*
%TO.C,C144*%
X16950000Y85080000D03*
X16950000Y84120000D03*
%TD*%
%TO.C,C47*%
X11000000Y32680000D03*
X11000000Y31720000D03*
%TD*%
D35*
%TO.C,C78*%
X19300000Y76050000D03*
X19300000Y74150000D03*
%TD*%
D30*
%TO.C,C135*%
X29175000Y89500000D03*
X30725000Y89500000D03*
%TD*%
D36*
%TO.C,C95*%
X12500000Y14920000D03*
X12500000Y15880000D03*
%TD*%
D10*
%TO.C,R35*%
X19300000Y32610000D03*
X19300000Y31590000D03*
%TD*%
D26*
%TO.C,D30*%
X63550000Y19137500D03*
X61650000Y19137500D03*
X62600000Y17262500D03*
%TD*%
D15*
%TO.C,R70*%
X11000000Y28840000D03*
X11000000Y29860000D03*
%TD*%
D19*
%TO.C,D54*%
X59770000Y89800000D03*
X58930000Y89800000D03*
%TD*%
D53*
%TO.C,C16*%
X70100000Y55975000D03*
X70100000Y57525000D03*
%TD*%
D21*
%TO.C,C65*%
X14350000Y41650000D03*
X12450000Y41650000D03*
%TD*%
D11*
%TO.C,D55*%
X45167006Y84393270D03*
X47067006Y84393270D03*
X46117006Y86268270D03*
%TD*%
%TO.C,Q4*%
X30700000Y39562500D03*
X32600000Y39562500D03*
X31650000Y41437500D03*
%TD*%
D13*
%TO.C,R27*%
X71890000Y46850000D03*
X72910000Y46850000D03*
%TD*%
D15*
%TO.C,R59*%
X20055518Y55557537D03*
X20055518Y56577537D03*
%TD*%
D12*
%TO.C,C163*%
X66230000Y70350000D03*
X65270000Y70350000D03*
%TD*%
D34*
%TO.C,Q1*%
X41412500Y34600000D03*
X41412500Y32700000D03*
X43287500Y33650000D03*
%TD*%
D10*
%TO.C,R143*%
X47800000Y21610000D03*
X47800000Y20590000D03*
%TD*%
D13*
%TO.C,R19*%
X49590000Y66350000D03*
X50610000Y66350000D03*
%TD*%
D10*
%TO.C,R76*%
X12500000Y19710000D03*
X12500000Y18690000D03*
%TD*%
D13*
%TO.C,R100*%
X20140000Y16800000D03*
X21160000Y16800000D03*
%TD*%
%TO.C,R56*%
X4690000Y44600000D03*
X5710000Y44600000D03*
%TD*%
D25*
%TO.C,C89*%
X67970000Y45800000D03*
X68930000Y45800000D03*
%TD*%
D23*
%TO.C,R98*%
X17810000Y21750000D03*
X16790000Y21750000D03*
%TD*%
D13*
%TO.C,R213*%
X66140000Y80050000D03*
X67160000Y80050000D03*
%TD*%
D23*
%TO.C,R223*%
X42116961Y86944915D03*
X41096961Y86944915D03*
%TD*%
D35*
%TO.C,C50*%
X15250000Y39900000D03*
X15250000Y38000000D03*
%TD*%
D13*
%TO.C,R201*%
X50190000Y71350000D03*
X51210000Y71350000D03*
%TD*%
D10*
%TO.C,R96*%
X31900000Y21610000D03*
X31900000Y20590000D03*
%TD*%
D25*
%TO.C,C127*%
X69970000Y15800000D03*
X70930000Y15800000D03*
%TD*%
D36*
%TO.C,C38*%
X40000000Y53620000D03*
X40000000Y54580000D03*
%TD*%
D28*
%TO.C,C182*%
X76200000Y51930000D03*
X76200000Y50970000D03*
%TD*%
D25*
%TO.C,C118*%
X65370000Y63650000D03*
X66330000Y63650000D03*
%TD*%
D31*
%TO.C,U11*%
X71600000Y34260000D03*
X71600000Y32990000D03*
X71600000Y31720000D03*
X71600000Y30450000D03*
X71600000Y29180000D03*
X71600000Y27910000D03*
X71600000Y26640000D03*
X76550000Y26640000D03*
X76550000Y27910000D03*
X76550000Y29180000D03*
X76550000Y30450000D03*
X76550000Y31720000D03*
X76550000Y32990000D03*
X76550000Y34260000D03*
%TD*%
D35*
%TO.C,C75*%
X21450000Y61550000D03*
X21450000Y59650000D03*
%TD*%
D11*
%TO.C,D27*%
X41250000Y15512500D03*
X43150000Y15512500D03*
X42200000Y17387500D03*
%TD*%
D23*
%TO.C,R20*%
X52510000Y66350000D03*
X51490000Y66350000D03*
%TD*%
D19*
%TO.C,D40*%
X70820000Y14850000D03*
X69980000Y14850000D03*
%TD*%
D10*
%TO.C,R4*%
X32100000Y54910000D03*
X32100000Y53890000D03*
%TD*%
D34*
%TO.C,Q15*%
X21212500Y24900000D03*
X21212500Y23000000D03*
X23087500Y23950000D03*
%TD*%
D23*
%TO.C,R72*%
X8110000Y27900000D03*
X7090000Y27900000D03*
%TD*%
D29*
%TO.C,F5*%
X50925000Y15150000D03*
X49275000Y15150000D03*
%TD*%
D10*
%TO.C,R47*%
X18600000Y40160000D03*
X18600000Y39140000D03*
%TD*%
D25*
%TO.C,C98*%
X67920000Y59600000D03*
X68880000Y59600000D03*
%TD*%
D23*
%TO.C,R165*%
X70960000Y16750000D03*
X69940000Y16750000D03*
%TD*%
D13*
%TO.C,R50*%
X32290000Y46850000D03*
X33310000Y46850000D03*
%TD*%
D28*
%TO.C,C169*%
X48800000Y85080000D03*
X48800000Y84120000D03*
%TD*%
D13*
%TO.C,R138*%
X68890000Y33250000D03*
X69910000Y33250000D03*
%TD*%
D26*
%TO.C,Q37*%
X22450000Y34037500D03*
X20550000Y34037500D03*
X21500000Y32162500D03*
%TD*%
D12*
%TO.C,C101*%
X30380000Y15850000D03*
X29420000Y15850000D03*
%TD*%
D46*
%TO.C,C43*%
X5350000Y42425000D03*
X5350000Y40875000D03*
%TD*%
D13*
%TO.C,R84*%
X8640000Y18800000D03*
X9660000Y18800000D03*
%TD*%
D12*
%TO.C,C102*%
X21130000Y15850000D03*
X20170000Y15850000D03*
%TD*%
D15*
%TO.C,R65*%
X18800000Y68980000D03*
X18800000Y70000000D03*
%TD*%
D30*
%TO.C,C119*%
X65325000Y16600000D03*
X66875000Y16600000D03*
%TD*%
D18*
%TO.C,U19*%
X52487500Y85650000D03*
X52487500Y86600000D03*
X52487500Y87550000D03*
X50212500Y87550000D03*
X50212500Y85650000D03*
%TD*%
D15*
%TO.C,R53*%
X21450000Y44390000D03*
X21450000Y45410000D03*
%TD*%
D25*
%TO.C,C108*%
X67920000Y53950000D03*
X68880000Y53950000D03*
%TD*%
D15*
%TO.C,R9*%
X30300000Y58840000D03*
X30300000Y59860000D03*
%TD*%
D26*
%TO.C,D19*%
X19050000Y20275000D03*
X17150000Y20275000D03*
X18100000Y18400000D03*
%TD*%
D13*
%TO.C,R206*%
X20940000Y52450000D03*
X21960000Y52450000D03*
%TD*%
D38*
%TO.C,SW1*%
X31299999Y26899999D03*
X31299999Y34849999D03*
X35799999Y26899999D03*
X35799999Y34849999D03*
%TD*%
D25*
%TO.C,C39*%
X43270000Y65500000D03*
X44230000Y65500000D03*
%TD*%
D13*
%TO.C,R114*%
X36490000Y21700000D03*
X37510000Y21700000D03*
%TD*%
D27*
%TO.C,D64*%
X70500000Y89350000D03*
X68400000Y89350000D03*
%TD*%
D23*
%TO.C,R218*%
X71670000Y80050000D03*
X70650000Y80050000D03*
%TD*%
D45*
%TO.C,U9*%
X13860000Y71400000D03*
X13860000Y69900000D03*
X15000000Y71400000D03*
X15000000Y69900000D03*
D31*
X11955000Y72555000D03*
X11955000Y71285000D03*
X11955000Y70015000D03*
X11955000Y68745000D03*
X16905000Y68745000D03*
X16905000Y70015000D03*
X16905000Y71285000D03*
X16905000Y72555000D03*
%TD*%
D15*
%TO.C,R118*%
X39900000Y14790000D03*
X39900000Y15810000D03*
%TD*%
D26*
%TO.C,Q5*%
X11250000Y22137500D03*
X9350000Y22137500D03*
X10300000Y20262500D03*
%TD*%
D11*
%TO.C,D60*%
X57600000Y82662500D03*
X59500000Y82662500D03*
X58550000Y84537500D03*
%TD*%
D13*
%TO.C,R175*%
X27021805Y86953656D03*
X28041805Y86953656D03*
%TD*%
D15*
%TO.C,R67*%
X13000000Y27790000D03*
X13000000Y28810000D03*
%TD*%
D34*
%TO.C,Q2*%
X41412500Y38050000D03*
X41412500Y36150000D03*
X43287500Y37100000D03*
%TD*%
D10*
%TO.C,R97*%
X31900000Y23510000D03*
X31900000Y22490000D03*
%TD*%
D13*
%TO.C,R1*%
X37240000Y55250000D03*
X38260000Y55250000D03*
%TD*%
D54*
%TO.C,D5*%
X13200000Y34800000D03*
X13200000Y36200000D03*
%TD*%
D55*
%TO.C,U6*%
X17325000Y43050000D03*
X18675000Y43050000D03*
X17325000Y44400000D03*
X18675000Y44400000D03*
D56*
X16750000Y41762500D03*
X17250000Y41762500D03*
X17750000Y41762500D03*
X18250000Y41762500D03*
X18750000Y41762500D03*
X19250000Y41762500D03*
D57*
X19962500Y42475000D03*
X19962500Y42975000D03*
X19962500Y43475000D03*
X19962500Y43975000D03*
X19962500Y44475000D03*
X19962500Y44975000D03*
D56*
X19250000Y45687500D03*
X18750000Y45687500D03*
X18250000Y45687500D03*
X17750000Y45687500D03*
X17250000Y45687500D03*
X16750000Y45687500D03*
D57*
X16037500Y44975000D03*
X16037500Y44475000D03*
X16037500Y43975000D03*
X16037500Y43475000D03*
X16037500Y42975000D03*
X16037500Y42475000D03*
%TD*%
D58*
%TO.C,U18*%
X66090000Y73225000D03*
X67360000Y73225000D03*
X68630000Y73225000D03*
X69900000Y73225000D03*
X71170000Y73225000D03*
X72440000Y73225000D03*
X73710000Y73225000D03*
X73710000Y78175000D03*
X72440000Y78175000D03*
X71170000Y78175000D03*
X69900000Y78175000D03*
X68630000Y78175000D03*
X67360000Y78175000D03*
X66090000Y78175000D03*
%TD*%
D59*
%TO.C,D10*%
X5685000Y43600000D03*
X4715000Y43600000D03*
%TD*%
D35*
%TO.C,C77*%
X17300000Y76050000D03*
X17300000Y74150000D03*
%TD*%
D41*
%TO.C,D32*%
X61380000Y14850000D03*
X62220000Y14850000D03*
%TD*%
D15*
%TO.C,R86*%
X69850000Y43090000D03*
X69850000Y44110000D03*
%TD*%
%TO.C,R69*%
X72400000Y48590000D03*
X72400000Y49610000D03*
%TD*%
D41*
%TO.C,D58*%
X57030000Y89800000D03*
X57870000Y89800000D03*
%TD*%
D25*
%TO.C,C85*%
X8320000Y68400000D03*
X9280000Y68400000D03*
%TD*%
D60*
%TO.C,C172*%
X55130000Y67600000D03*
X57030000Y67600000D03*
%TD*%
D21*
%TO.C,C56*%
X17750000Y48600000D03*
X15850000Y48600000D03*
%TD*%
D25*
%TO.C,C31*%
X51370000Y37500000D03*
X52330000Y37500000D03*
%TD*%
D23*
%TO.C,R189*%
X26160000Y86950000D03*
X25140000Y86950000D03*
%TD*%
D26*
%TO.C,Q8*%
X30650000Y23037500D03*
X28750000Y23037500D03*
X29700000Y21162500D03*
%TD*%
D13*
%TO.C,R182*%
X44290000Y80050000D03*
X45310000Y80050000D03*
%TD*%
D61*
%TO.C,D7*%
X12000000Y36620000D03*
X12000000Y35780000D03*
%TD*%
D41*
%TO.C,D17*%
X13452500Y14850000D03*
X14292500Y14850000D03*
%TD*%
%TO.C,D31*%
X45380000Y14850000D03*
X46220000Y14850000D03*
%TD*%
D12*
%TO.C,C152*%
X16980000Y87850000D03*
X16020000Y87850000D03*
%TD*%
D25*
%TO.C,C15*%
X67920000Y57700000D03*
X68880000Y57700000D03*
%TD*%
D36*
%TO.C,C21*%
X70612500Y52820000D03*
X70612500Y53780000D03*
%TD*%
D62*
%TO.C,Y2*%
X72037499Y53124999D03*
X72037499Y51474999D03*
X73287499Y51474999D03*
X73287499Y53124999D03*
%TD*%
D15*
%TO.C,R33*%
X7300000Y39840000D03*
X7300000Y40860000D03*
%TD*%
D10*
%TO.C,R153*%
X76200000Y46210000D03*
X76200000Y45190000D03*
%TD*%
D12*
%TO.C,C166*%
X70480000Y71350000D03*
X69520000Y71350000D03*
%TD*%
D36*
%TO.C,C71*%
X10200000Y72000000D03*
X10200000Y72960000D03*
%TD*%
D12*
%TO.C,C162*%
X57930000Y88850000D03*
X56970000Y88850000D03*
%TD*%
D15*
%TO.C,R31*%
X18300000Y31590000D03*
X18300000Y32610000D03*
%TD*%
D30*
%TO.C,C94*%
X17425000Y16650000D03*
X18975000Y16650000D03*
%TD*%
D34*
%TO.C,Q11*%
X49262500Y24850000D03*
X49262500Y22950000D03*
X51137500Y23900000D03*
%TD*%
D13*
%TO.C,R191*%
X25140000Y86000000D03*
X26160000Y86000000D03*
%TD*%
%TO.C,R236*%
X74490000Y71350000D03*
X75510000Y71350000D03*
%TD*%
D25*
%TO.C,C180*%
X19220000Y47150000D03*
X20180000Y47150000D03*
%TD*%
D10*
%TO.C,R40*%
X21450000Y37410000D03*
X21450000Y36390000D03*
%TD*%
D41*
%TO.C,D35*%
X52130000Y14850000D03*
X52970000Y14850000D03*
%TD*%
D15*
%TO.C,R36*%
X10300000Y39840000D03*
X10300000Y40860000D03*
%TD*%
D11*
%TO.C,Q32*%
X50900000Y72850000D03*
X52800000Y72850000D03*
X51850000Y74725000D03*
%TD*%
D15*
%TO.C,R14*%
X68900000Y55790000D03*
X68900000Y56810000D03*
%TD*%
%TO.C,R239*%
X48800000Y82240000D03*
X48800000Y83260000D03*
%TD*%
D28*
%TO.C,C83*%
X10200000Y69380000D03*
X10200000Y68420000D03*
%TD*%
D10*
%TO.C,R8*%
X58450000Y32760000D03*
X58450000Y31740000D03*
%TD*%
D36*
%TO.C,C138*%
X59750000Y63770000D03*
X59750000Y64730000D03*
%TD*%
D15*
%TO.C,R44*%
X21450000Y39140000D03*
X21450000Y40160000D03*
%TD*%
D25*
%TO.C,C171*%
X56420000Y69100000D03*
X57380000Y69100000D03*
%TD*%
D11*
%TO.C,D13*%
X9350000Y15462500D03*
X11250000Y15462500D03*
X10300000Y17337500D03*
%TD*%
D13*
%TO.C,R226*%
X56890000Y86000000D03*
X57910000Y86000000D03*
%TD*%
D23*
%TO.C,R128*%
X46870000Y24500000D03*
X45850000Y24500000D03*
%TD*%
D21*
%TO.C,C64*%
X3500000Y40500000D03*
X1600000Y40500000D03*
%TD*%
D10*
%TO.C,R89*%
X78262513Y41860000D03*
X78262513Y40840000D03*
%TD*%
D29*
%TO.C,F3*%
X19025000Y15150000D03*
X17375000Y15150000D03*
%TD*%
D43*
%TO.C,C67*%
X8850000Y57750000D03*
X8850000Y59650000D03*
%TD*%
D25*
%TO.C,C97*%
X67970000Y52400000D03*
X68930000Y52400000D03*
%TD*%
D10*
%TO.C,R117*%
X15900000Y25410000D03*
X15900000Y24390000D03*
%TD*%
D23*
%TO.C,R48*%
X22410000Y42450000D03*
X21390000Y42450000D03*
%TD*%
%TO.C,R234*%
X77410000Y71350000D03*
X76390000Y71350000D03*
%TD*%
D46*
%TO.C,C174*%
X58580000Y68875000D03*
X58580000Y67325000D03*
%TD*%
D14*
%TO.C,R208*%
X31012500Y79237500D03*
X32837500Y79237500D03*
%TD*%
D36*
%TO.C,C159*%
X62600000Y63770000D03*
X62600000Y64730000D03*
%TD*%
D13*
%TO.C,R112*%
X20490000Y21750000D03*
X21510000Y21750000D03*
%TD*%
D23*
%TO.C,R199*%
X53110000Y71350000D03*
X52090000Y71350000D03*
%TD*%
D10*
%TO.C,R88*%
X68900000Y44110000D03*
X68900000Y43090000D03*
%TD*%
D28*
%TO.C,C7*%
X37700000Y37830000D03*
X37700000Y36870000D03*
%TD*%
D18*
%TO.C,U14*%
X36537500Y85700000D03*
X36537500Y86650000D03*
X36537500Y87600000D03*
X34262500Y87600000D03*
X34262500Y85700000D03*
%TD*%
D13*
%TO.C,R21*%
X73840000Y45550000D03*
X74860000Y45550000D03*
%TD*%
D23*
%TO.C,R212*%
X59810000Y86000000D03*
X58790000Y86000000D03*
%TD*%
D13*
%TO.C,R164*%
X68390000Y21700000D03*
X69410000Y21700000D03*
%TD*%
D63*
%TO.C,U5*%
X8590000Y43522500D03*
X8590000Y42802500D03*
X9310000Y43522500D03*
X9310000Y42802500D03*
D64*
X7687500Y43662500D03*
X7687500Y43162500D03*
X7687500Y42662500D03*
D65*
X8200000Y41900000D03*
X8700000Y41900000D03*
X9200000Y41900000D03*
X9700000Y41900000D03*
D64*
X10212500Y42662500D03*
X10212500Y43162500D03*
X10212500Y43662500D03*
D65*
X9700000Y44425000D03*
X9200000Y44425000D03*
X8700000Y44425000D03*
X8200000Y44425000D03*
%TD*%
D10*
%TO.C,R139*%
X78300000Y32360000D03*
X78300000Y31340000D03*
%TD*%
D23*
%TO.C,R79*%
X30960000Y24500000D03*
X29940000Y24500000D03*
%TD*%
D18*
%TO.C,U22*%
X68337500Y82300000D03*
X68337500Y83250000D03*
X68337500Y84200000D03*
X66062500Y84200000D03*
X66062500Y82300000D03*
%TD*%
D15*
%TO.C,R168*%
X71850000Y14790000D03*
X71850000Y15810000D03*
%TD*%
D13*
%TO.C,R195*%
X25153381Y87902512D03*
X26173381Y87902512D03*
%TD*%
D34*
%TO.C,Q10*%
X17362500Y24900000D03*
X17362500Y23000000D03*
X19237500Y23950000D03*
%TD*%
D36*
%TO.C,C48*%
X11000000Y35720000D03*
X11000000Y36680000D03*
%TD*%
D25*
%TO.C,C179*%
X69670000Y87900000D03*
X70630000Y87900000D03*
%TD*%
D10*
%TO.C,R147*%
X63800000Y23460000D03*
X63800000Y22440000D03*
%TD*%
D12*
%TO.C,C55*%
X17480000Y47100000D03*
X16520000Y47100000D03*
%TD*%
D13*
%TO.C,R178*%
X41790000Y80050000D03*
X42810000Y80050000D03*
%TD*%
D30*
%TO.C,C132*%
X13325000Y89500000D03*
X14875000Y89500000D03*
%TD*%
D23*
%TO.C,R78*%
X14970000Y24450000D03*
X13950000Y24450000D03*
%TD*%
D26*
%TO.C,D16*%
X31650000Y19187500D03*
X29750000Y19187500D03*
X30700000Y17312500D03*
%TD*%
D28*
%TO.C,C10*%
X30200000Y77130000D03*
X30200000Y76170000D03*
%TD*%
D22*
%TO.C,C3*%
X35525000Y58550000D03*
X33975000Y58550000D03*
%TD*%
D12*
%TO.C,C168*%
X64680000Y81800000D03*
X63720000Y81800000D03*
%TD*%
D23*
%TO.C,R43*%
X34860000Y41650000D03*
X33840000Y41650000D03*
%TD*%
D46*
%TO.C,C34*%
X70150000Y49275000D03*
X70150000Y47725000D03*
%TD*%
D15*
%TO.C,R38*%
X8300000Y39840000D03*
X8300000Y40860000D03*
%TD*%
D25*
%TO.C,C117*%
X67920000Y60550000D03*
X68880000Y60550000D03*
%TD*%
D60*
%TO.C,C147*%
X31775000Y67587500D03*
X33675000Y67587500D03*
%TD*%
D25*
%TO.C,C150*%
X31245000Y69087500D03*
X32205000Y69087500D03*
%TD*%
%TO.C,C175*%
X54570000Y69100000D03*
X55530000Y69100000D03*
%TD*%
D13*
%TO.C,R131*%
X58440000Y18750000D03*
X59460000Y18750000D03*
%TD*%
D35*
%TO.C,C49*%
X13250000Y39900000D03*
X13250000Y38000000D03*
%TD*%
D12*
%TO.C,C26*%
X56830000Y63700000D03*
X55870000Y63700000D03*
%TD*%
D26*
%TO.C,Q6*%
X27250000Y22087500D03*
X25350000Y22087500D03*
X26300000Y20212500D03*
%TD*%
D36*
%TO.C,C23*%
X67950000Y43120000D03*
X67950000Y44080000D03*
%TD*%
D11*
%TO.C,D43*%
X13350000Y84412500D03*
X15250000Y84412500D03*
X14300000Y86287500D03*
%TD*%
D19*
%TO.C,D42*%
X27970000Y89800000D03*
X27130000Y89800000D03*
%TD*%
D23*
%TO.C,R129*%
X62860000Y24450000D03*
X61840000Y24450000D03*
%TD*%
D29*
%TO.C,F7*%
X14925000Y88000000D03*
X13275000Y88000000D03*
%TD*%
D26*
%TO.C,Q3*%
X32600000Y45337500D03*
X30700000Y45337500D03*
X31650000Y43462500D03*
%TD*%
D30*
%TO.C,C91*%
X25325000Y23850000D03*
X26875000Y23850000D03*
%TD*%
D50*
%TO.C,U23*%
X57480000Y73650000D03*
X56320000Y73650000D03*
D51*
X59175000Y76512500D03*
X58525000Y76512500D03*
X57875000Y76512500D03*
X57225000Y76512500D03*
X56575000Y76512500D03*
X55925000Y76512500D03*
X55275000Y76512500D03*
X54625000Y76512500D03*
X54625000Y70787500D03*
X55275000Y70787500D03*
X55925000Y70787500D03*
X56575000Y70787500D03*
X57225000Y70787500D03*
X57875000Y70787500D03*
X58525000Y70787500D03*
X59175000Y70787500D03*
%TD*%
D41*
%TO.C,D36*%
X68130000Y14850000D03*
X68970000Y14850000D03*
%TD*%
D36*
%TO.C,C45*%
X8600000Y45520000D03*
X8600000Y46480000D03*
%TD*%
D23*
%TO.C,R184*%
X40910000Y80050000D03*
X39890000Y80050000D03*
%TD*%
D53*
%TO.C,C92*%
X68650000Y29175000D03*
X68650000Y30725000D03*
%TD*%
%TO.C,C11*%
X40500000Y47725000D03*
X40500000Y49275000D03*
%TD*%
D23*
%TO.C,R180*%
X12154107Y87908089D03*
X11134107Y87908089D03*
%TD*%
D13*
%TO.C,R186*%
X37990000Y80050000D03*
X39010000Y80050000D03*
%TD*%
D23*
%TO.C,R15*%
X39660000Y36900000D03*
X38640000Y36900000D03*
%TD*%
D11*
%TO.C,D47*%
X9950000Y82662500D03*
X11850000Y82662500D03*
X10900000Y84537500D03*
%TD*%
D13*
%TO.C,R210*%
X58790000Y86955722D03*
X59810000Y86955722D03*
%TD*%
D10*
%TO.C,R45*%
X19550000Y40160000D03*
X19550000Y39140000D03*
%TD*%
%TO.C,R94*%
X15900000Y23510000D03*
X15900000Y22490000D03*
%TD*%
D25*
%TO.C,C109*%
X67920000Y58650000D03*
X68880000Y58650000D03*
%TD*%
D23*
%TO.C,R177*%
X28047000Y85995773D03*
X27027000Y85995773D03*
%TD*%
D25*
%TO.C,C155*%
X43027500Y88850000D03*
X43987500Y88850000D03*
%TD*%
D43*
%TO.C,C70*%
X8700000Y72250000D03*
X8700000Y74150000D03*
%TD*%
D66*
%TO.C,D6*%
X12000000Y31780000D03*
X12000000Y32620000D03*
%TD*%
D13*
%TO.C,R217*%
X68090000Y80050000D03*
X69110000Y80050000D03*
%TD*%
D15*
%TO.C,R166*%
X55850000Y14790000D03*
X55850000Y15810000D03*
%TD*%
D43*
%TO.C,C9*%
X23300000Y82750000D03*
X23300000Y84650000D03*
%TD*%
D23*
%TO.C,R148*%
X49710000Y21700000D03*
X48690000Y21700000D03*
%TD*%
D18*
%TO.C,U21*%
X52475000Y82250000D03*
X52475000Y83200000D03*
X52475000Y84150000D03*
X50200000Y84150000D03*
X50200000Y82250000D03*
%TD*%
D26*
%TO.C,Q34*%
X77150000Y78537500D03*
X75250000Y78537500D03*
X76200000Y76662500D03*
%TD*%
D36*
%TO.C,C24*%
X68000000Y48620000D03*
X68000000Y49580000D03*
%TD*%
D10*
%TO.C,R137*%
X78300000Y34260000D03*
X78300000Y33240000D03*
%TD*%
D53*
%TO.C,C17*%
X71600000Y55975000D03*
X71600000Y57525000D03*
%TD*%
D30*
%TO.C,C111*%
X57225000Y23850000D03*
X58775000Y23850000D03*
%TD*%
D25*
%TO.C,C105*%
X34670000Y21700000D03*
X35630000Y21700000D03*
%TD*%
D23*
%TO.C,R115*%
X39060000Y16750000D03*
X38040000Y16750000D03*
%TD*%
D13*
%TO.C,R24*%
X66590000Y36650000D03*
X67610000Y36650000D03*
%TD*%
%TO.C,R64*%
X8290000Y69400000D03*
X9310000Y69400000D03*
%TD*%
D26*
%TO.C,Q7*%
X14650000Y22987500D03*
X12750000Y22987500D03*
X13700000Y21112500D03*
%TD*%
D23*
%TO.C,R61*%
X20810000Y70000000D03*
X19790000Y70000000D03*
%TD*%
D30*
%TO.C,C33*%
X63775000Y64900000D03*
X65325000Y64900000D03*
%TD*%
D23*
%TO.C,R149*%
X65710000Y21700000D03*
X64690000Y21700000D03*
%TD*%
D21*
%TO.C,C57*%
X77750000Y62800000D03*
X75850000Y62800000D03*
%TD*%
D10*
%TO.C,R73*%
X73350000Y49610000D03*
X73350000Y48590000D03*
%TD*%
D46*
%TO.C,C149*%
X35225000Y68862500D03*
X35225000Y67312500D03*
%TD*%
D67*
%TO.C,D11*%
X21750000Y63850000D03*
X17350000Y63850000D03*
%TD*%
D68*
%TO.C,J3*%
X6863194Y37343475D03*
X6863194Y36543475D03*
D69*
X6863194Y35393475D03*
X6863194Y34393475D03*
X6863194Y33893475D03*
X6863194Y32893475D03*
D68*
X6863194Y31743475D03*
X6863194Y30943475D03*
X6863194Y30943475D03*
X6863194Y31743475D03*
D69*
X6863194Y32393475D03*
X6863194Y33393475D03*
X6863194Y34893475D03*
X6863194Y35893475D03*
D68*
X6863194Y36543475D03*
X6863194Y37343475D03*
%TD*%
D46*
%TO.C,C2*%
X72500000Y13625000D03*
X72500000Y12075000D03*
%TD*%
D28*
%TO.C,C12*%
X41750000Y49080000D03*
X41750000Y48120000D03*
%TD*%
%TO.C,C1*%
X72650000Y18530000D03*
X72650000Y17570000D03*
%TD*%
D13*
%TO.C,R240*%
X63690000Y82750000D03*
X64710000Y82750000D03*
%TD*%
%TO.C,R197*%
X48290000Y70400000D03*
X49310000Y70400000D03*
%TD*%
D41*
%TO.C,D46*%
X25280000Y89800000D03*
X26120000Y89800000D03*
%TD*%
D13*
%TO.C,R109*%
X58230000Y27350000D03*
X59250000Y27350000D03*
%TD*%
D20*
%TO.C,R242*%
X59592500Y79250000D03*
X57767500Y79250000D03*
%TD*%
D26*
%TO.C,Q30*%
X52800000Y78587500D03*
X50900000Y78587500D03*
X51850000Y76712500D03*
%TD*%
D25*
%TO.C,C142*%
X18370000Y81000000D03*
X19330000Y81000000D03*
%TD*%
D12*
%TO.C,C137*%
X26180000Y88850000D03*
X25220000Y88850000D03*
%TD*%
D41*
%TO.C,D22*%
X36230000Y14850000D03*
X37070000Y14850000D03*
%TD*%
D25*
%TO.C,C32*%
X63220000Y37500000D03*
X64180000Y37500000D03*
%TD*%
D23*
%TO.C,R7*%
X39610000Y37850000D03*
X38590000Y37850000D03*
%TD*%
D13*
%TO.C,R34*%
X8990000Y33700000D03*
X10010000Y33700000D03*
%TD*%
D26*
%TO.C,D38*%
X70350000Y20237500D03*
X68450000Y20237500D03*
X69400000Y18362500D03*
%TD*%
D15*
%TO.C,R25*%
X37850000Y30490000D03*
X37850000Y31510000D03*
%TD*%
D60*
%TO.C,C59*%
X19300000Y48600000D03*
X21200000Y48600000D03*
%TD*%
D23*
%TO.C,R187*%
X53110000Y80050000D03*
X52090000Y80050000D03*
%TD*%
D13*
%TO.C,R42*%
X30390000Y46850000D03*
X31410000Y46850000D03*
%TD*%
D26*
%TO.C,D29*%
X47550000Y19187500D03*
X45650000Y19187500D03*
X46600000Y17312500D03*
%TD*%
D13*
%TO.C,R220*%
X74540000Y80050000D03*
X75560000Y80050000D03*
%TD*%
D15*
%TO.C,R203*%
X32850000Y85950000D03*
X32850000Y86970000D03*
%TD*%
D23*
%TO.C,R181*%
X28041468Y87899651D03*
X27021468Y87899651D03*
%TD*%
D36*
%TO.C,C96*%
X28500000Y14920000D03*
X28500000Y15880000D03*
%TD*%
D25*
%TO.C,C151*%
X22020000Y87900000D03*
X22980000Y87900000D03*
%TD*%
D28*
%TO.C,C82*%
X10330000Y54950000D03*
X10330000Y53990000D03*
%TD*%
D53*
%TO.C,C181*%
X74950000Y50375000D03*
X74950000Y51925000D03*
%TD*%
D26*
%TO.C,Q17*%
X43150000Y22187500D03*
X41250000Y22187500D03*
X42200000Y20312500D03*
%TD*%
D12*
%TO.C,C25*%
X64480000Y63650000D03*
X63520000Y63650000D03*
%TD*%
D67*
%TO.C,D12*%
X21600000Y78300000D03*
X17200000Y78300000D03*
%TD*%
D13*
%TO.C,R225*%
X41090000Y86000000D03*
X42110000Y86000000D03*
%TD*%
D29*
%TO.C,F4*%
X35025000Y15150000D03*
X33375000Y15150000D03*
%TD*%
D41*
%TO.C,D18*%
X29452500Y14850000D03*
X30292500Y14850000D03*
%TD*%
D15*
%TO.C,R111*%
X39700000Y19750000D03*
X39700000Y20770000D03*
%TD*%
D10*
%TO.C,R124*%
X44400000Y17760000D03*
X44400000Y16740000D03*
%TD*%
D15*
%TO.C,R18*%
X30450000Y53590000D03*
X30450000Y54610000D03*
%TD*%
%TO.C,R161*%
X71600000Y19740000D03*
X71600000Y20760000D03*
%TD*%
D13*
%TO.C,R81*%
X26590000Y18750000D03*
X27610000Y18750000D03*
%TD*%
D12*
%TO.C,C63*%
X2830000Y42000000D03*
X1870000Y42000000D03*
%TD*%
D13*
%TO.C,R192*%
X41790000Y71350000D03*
X42810000Y71350000D03*
%TD*%
D58*
%TO.C,U12*%
X41740000Y73225000D03*
X43010000Y73225000D03*
X44280000Y73225000D03*
X45550000Y73225000D03*
X46820000Y73225000D03*
X48090000Y73225000D03*
X49360000Y73225000D03*
X49360000Y78175000D03*
X48090000Y78175000D03*
X46820000Y78175000D03*
X45550000Y78175000D03*
X44280000Y78175000D03*
X43010000Y78175000D03*
X41740000Y78175000D03*
%TD*%
D15*
%TO.C,R46*%
X20500000Y39140000D03*
X20500000Y40160000D03*
%TD*%
D13*
%TO.C,R134*%
X40590000Y18850000D03*
X41610000Y18850000D03*
%TD*%
D26*
%TO.C,D37*%
X54350000Y20237500D03*
X52450000Y20237500D03*
X53400000Y18362500D03*
%TD*%
D36*
%TO.C,C134*%
X57850000Y63770000D03*
X57850000Y64730000D03*
%TD*%
D10*
%TO.C,R125*%
X60400000Y17710000D03*
X60400000Y16690000D03*
%TD*%
D18*
%TO.C,U16*%
X36537500Y82250000D03*
X36537500Y83200000D03*
X36537500Y84150000D03*
X34262500Y84150000D03*
X34262500Y82250000D03*
%TD*%
D41*
%TO.C,D45*%
X9380000Y89800000D03*
X10220000Y89800000D03*
%TD*%
D23*
%TO.C,R55*%
X34860000Y39650000D03*
X33840000Y39650000D03*
%TD*%
%TO.C,R214*%
X73670000Y80050000D03*
X72650000Y80050000D03*
%TD*%
D18*
%TO.C,U20*%
X68287500Y85750000D03*
X68287500Y86700000D03*
X68287500Y87650000D03*
X66012500Y87650000D03*
X66012500Y85750000D03*
%TD*%
D25*
%TO.C,C88*%
X67970000Y47700000D03*
X68930000Y47700000D03*
%TD*%
D15*
%TO.C,R238*%
X64600000Y85990000D03*
X64600000Y87010000D03*
%TD*%
D10*
%TO.C,R39*%
X20500000Y37410000D03*
X20500000Y36390000D03*
%TD*%
D11*
%TO.C,D28*%
X57250000Y15412500D03*
X59150000Y15412500D03*
X58200000Y17287500D03*
%TD*%
D23*
%TO.C,R163*%
X54960000Y16750000D03*
X53940000Y16750000D03*
%TD*%
%TO.C,R216*%
X59823763Y87903052D03*
X58803763Y87903052D03*
%TD*%
D15*
%TO.C,R173*%
X78334053Y28540000D03*
X78334053Y29560000D03*
%TD*%
D70*
%TO.C,D4*%
X13200000Y33600000D03*
X13200000Y32200000D03*
%TD*%
D24*
%TO.C,D51*%
X32050000Y89300000D03*
X34150000Y89300000D03*
%TD*%
D25*
%TO.C,C84*%
X8350000Y53950000D03*
X9310000Y53950000D03*
%TD*%
D13*
%TO.C,R22*%
X73840000Y46850000D03*
X74860000Y46850000D03*
%TD*%
D36*
%TO.C,C62*%
X4400000Y47020000D03*
X4400000Y47980000D03*
%TD*%
D13*
%TO.C,R190*%
X9290000Y86000000D03*
X10310000Y86000000D03*
%TD*%
D15*
%TO.C,R37*%
X9300000Y39840000D03*
X9300000Y40860000D03*
%TD*%
D13*
%TO.C,R183*%
X48290000Y81000000D03*
X49310000Y81000000D03*
%TD*%
D26*
%TO.C,Q20*%
X62550000Y22987500D03*
X60650000Y22987500D03*
X61600000Y21112500D03*
%TD*%
D10*
%TO.C,R169*%
X63800000Y25350000D03*
X63800000Y24330000D03*
%TD*%
D12*
%TO.C,C161*%
X42130000Y88850000D03*
X41170000Y88850000D03*
%TD*%
D28*
%TO.C,C52*%
X16700000Y40130000D03*
X16700000Y39170000D03*
%TD*%
D15*
%TO.C,R171*%
X78350000Y26640000D03*
X78350000Y27660000D03*
%TD*%
D23*
%TO.C,R211*%
X43975066Y86000191D03*
X42955066Y86000191D03*
%TD*%
D25*
%TO.C,C54*%
X13670000Y44600000D03*
X14630000Y44600000D03*
%TD*%
%TO.C,C130*%
X11170000Y88850000D03*
X12130000Y88850000D03*
%TD*%
D36*
%TO.C,C139*%
X60700000Y63770000D03*
X60700000Y64730000D03*
%TD*%
D71*
%TO.C,D65*%
X74549999Y55799999D03*
X77749999Y55799999D03*
X77749999Y60699999D03*
X74549999Y60699999D03*
%TD*%
D13*
%TO.C,R133*%
X59940000Y24450000D03*
X60960000Y24450000D03*
%TD*%
D26*
%TO.C,D24*%
X38450000Y20237500D03*
X36550000Y20237500D03*
X37500000Y18362500D03*
%TD*%
D30*
%TO.C,C157*%
X45125000Y89500000D03*
X46675000Y89500000D03*
%TD*%
D26*
%TO.C,D23*%
X22450000Y20275000D03*
X20550000Y20275000D03*
X21500000Y18400000D03*
%TD*%
%TO.C,Q19*%
X46550000Y23037500D03*
X44650000Y23037500D03*
X45600000Y21162500D03*
%TD*%
D23*
%TO.C,R16*%
X43810000Y39350000D03*
X42790000Y39350000D03*
%TD*%
D12*
%TO.C,C120*%
X46280000Y15850000D03*
X45320000Y15850000D03*
%TD*%
D28*
%TO.C,C93*%
X69900000Y30430000D03*
X69900000Y29470000D03*
%TD*%
D10*
%TO.C,R92*%
X15300000Y15860000D03*
X15300000Y14840000D03*
%TD*%
D12*
%TO.C,C27*%
X46075000Y63550000D03*
X45115000Y63550000D03*
%TD*%
%TO.C,C124*%
X69030000Y15800000D03*
X68070000Y15800000D03*
%TD*%
D23*
%TO.C,R99*%
X33810000Y21700000D03*
X32790000Y21700000D03*
%TD*%
D13*
%TO.C,R229*%
X41106910Y87896027D03*
X42126910Y87896027D03*
%TD*%
%TO.C,R232*%
X74490000Y70400000D03*
X75510000Y70400000D03*
%TD*%
%TO.C,R194*%
X9240000Y87908089D03*
X10260000Y87908089D03*
%TD*%
D26*
%TO.C,Q33*%
X64550000Y78587500D03*
X62650000Y78587500D03*
X63600000Y76712500D03*
%TD*%
M02*
