M48
; DRILL file {KiCad (7.0.0)} date Thu Mar 16 19:41:53 2023
; FORMAT={-:-/ absolute / inch / decimal}
; #@! TF.CreationDate,2023-03-16T19:41:53+00:00
; #@! TF.GenerationSoftware,Kicad,Pcbnew,(7.0.0)
; #@! TF.FileFunction,Plated,1,4,PTH
FMAT,2
INCH
; #@! TA.AperFunction,Plated,PTH,ComponentDrill
T1C0.0118
; #@! TA.AperFunction,Plated,PTH,ViaDrill
T2C0.0138
; #@! TA.AperFunction,Plated,PTH,ComponentDrill
T3C0.0197
; #@! TA.AperFunction,Plated,PTH,ComponentDrill
T4C0.0236
; #@! TA.AperFunction,Plated,PTH,ComponentDrill
T5C0.0295
; #@! TA.AperFunction,Plated,PTH,ComponentDrill
T6C0.0299
; #@! TA.AperFunction,Plated,PTH,ComponentDrill
T7C0.0394
; #@! TA.AperFunction,Plated,PTH,ViaDrill
T8C0.0787
; #@! TA.AperFunction,Plated,PTH,ViaDrill
T9C0.1181
; #@! TA.AperFunction,Plated,PTH,ComponentDrill
T10C0.1260
%
G90
G05
T1
X5.6606Y-2.6516
X5.6606Y-2.6909
X5.6606Y-2.7303
X5.6654Y-3.2203
X5.6654Y-3.2596
X5.6654Y-3.299
X5.7118Y-2.6516
X5.7118Y-2.6909
X5.7118Y-2.7303
X5.7165Y-3.2203
X5.7165Y-3.2596
X5.7165Y-3.299
X5.7835Y-3.7077
X5.7835Y-3.751
X5.7835Y-3.7943
X5.8268Y-3.7077
X5.8268Y-3.751
X5.8268Y-3.7943
X5.8701Y-3.7077
X5.8701Y-3.751
X5.8701Y-3.7943
X6.3799Y-2.5413
X6.3799Y-2.6004
X6.439Y-2.5413
X6.439Y-2.6004
X6.498Y-2.5413
X6.498Y-2.6004
X7.2992Y-2.5433
X7.2992Y-2.6024
X7.3583Y-2.5433
X7.3583Y-2.6024
X7.4173Y-2.5433
X7.4173Y-2.6024
T2
X5.1535Y-3.6594
X5.1988Y-3.5846
X5.1988Y-3.624
X5.2185Y-3.7146
X5.2185Y-3.7539
X5.2601Y-3.8014
X5.2717Y-3.8346
X5.2933Y-3.7894
X5.3012Y-2.9567
X5.3012Y-2.998
X5.3012Y-3.0354
X5.3012Y-3.6673
X5.3169Y-4.0807
X5.3386Y-3.5906
X5.3406Y-2.6909
X5.3406Y-2.7303
X5.3406Y-2.7717
X5.3406Y-2.811
X5.3424Y-3.8967
X5.3425Y-4.9528
X5.3445Y-3.3012
X5.3445Y-3.3425
X5.3445Y-3.3819
X5.3445Y-3.4252
X5.3445Y-4.6378
X5.378Y-4.5866
X5.378Y-4.6909
X5.3836Y-3.7577
X5.3957Y-4.8996
X5.3957Y-5.0039
X5.4092Y-3.8226
X5.4134Y-3.7244
X5.4288Y-4.0006
X5.4311Y-4.437
X5.4394Y-3.937
X5.4508Y-2.0118
X5.4567Y-3.6063
X5.4648Y-3.9671
X5.4705Y-3.7731
X5.4744Y-4.374
X5.4862Y-1.9114
X5.4862Y-4.9139
X5.4875Y-4.4783
X5.4897Y-3.9362
X5.4921Y-3.6811
X5.5098Y-2.1693
X5.5177Y-4.3386
X5.5189Y-4.6004
X5.5197Y-4.252
X5.5276Y-3.7244
X5.5512Y-4.0925
X5.5512Y-4.1594
X5.5551Y-4.4961
X5.561Y-4.9134
X5.565Y-3.7972
X5.5659Y-3.8346
X5.5673Y-4.4262
X5.5807Y-3.7638
X5.5846Y-2.1693
X5.5945Y-1.9114
X5.6083Y-3.5413
X5.6201Y-4.6147
X5.622Y-4.2716
X5.622Y-4.4134
X5.6398Y-2.0492
X5.6437Y-1.9094
X5.6437Y-2.1004
X5.6476Y-4.7662
X5.6476Y-4.8164
X5.6476Y-4.9114
X5.656Y-4.4252
X5.6575Y-4.565
X5.6588Y-4.2706
X5.6614Y-3.7854
X5.6673Y-3.5413
X5.6673Y-3.5807
X5.6673Y-3.6201
X5.6714Y-4.0472
X5.6714Y-4.2047
X5.685Y-2.1969
X5.6969Y-4.3504
X5.7067Y-3.5413
X5.7067Y-3.5807
X5.7067Y-3.6201
X5.7067Y-4.2461
X5.7067Y-4.4724
X5.7067Y-4.6181
X5.7185Y-2.1004
X5.7205Y-4.1909
X5.7343Y-4.7682
X5.7343Y-4.8071
X5.7346Y-4.2753
X5.7402Y-2.063
X5.7441Y-4.4449
X5.75Y-1.9823
X5.7539Y-1.9301
X5.7539Y-2.2756
X5.7736Y-3.9606
X5.7736Y-4.0
X5.7913Y-4.7822
X5.7933Y-4.7229
X5.8012Y-4.9225
X5.8091Y-2.2835
X5.813Y-3.9606
X5.813Y-4.0
X5.8339Y-2.1974
X5.8386Y-4.1555
X5.8425Y-4.1161
X5.843Y-2.063
X5.8503Y-4.0384
X5.8549Y-4.5637
X5.8583Y-4.4813
X5.8614Y-2.3616
X5.8614Y-2.401
X5.8614Y-2.4404
X5.8673Y-2.9311
X5.8673Y-2.9705
X5.8673Y-3.0098
X5.8681Y-4.7229
X5.8681Y-1.9567
X5.8701Y-3.4744
X5.8701Y-3.5138
X5.8819Y-4.5886
X5.8829Y-2.1004
X5.8835Y-2.2122
X5.8893Y-2.0256
X5.8893Y-2.1594
X5.9006Y-2.5959
X5.9006Y-2.6352
X5.9008Y-2.3616
X5.9008Y-2.401
X5.9008Y-2.4404
X5.9035Y-1.9567
X5.9035Y-3.6732
X5.9065Y-3.1654
X5.9065Y-3.2047
X5.9067Y-2.9311
X5.9067Y-2.9705
X5.9067Y-3.0098
X5.9094Y-3.4744
X5.9094Y-3.5138
X5.9134Y-4.4429
X5.9134Y-4.9114
X5.9251Y-3.8358
X5.9252Y-3.9646
X5.9252Y-4.0748
X5.9272Y-4.7229
X5.9273Y-4.7617
X5.94Y-2.5959
X5.94Y-2.6352
X5.9429Y-3.7205
X5.9449Y-2.2972
X5.9449Y-3.6161
X5.9459Y-3.1654
X5.9459Y-3.2047
X5.9567Y-3.4744
X5.9567Y-3.5138
X5.9626Y-3.9646
X5.9626Y-4.0748
X5.9685Y-4.3091
X5.9793Y-2.5959
X5.9793Y-2.6352
X5.9849Y-3.6476
X5.9852Y-3.1654
X5.9852Y-3.2047
X5.9931Y-3.9103
X5.9961Y-4.0079
X5.998Y-4.3347
X6.0Y-4.6201
X6.002Y-3.4843
X6.002Y-3.5217
X6.002Y-3.5591
X6.002Y-3.5945
X6.0059Y-4.5669
X6.0088Y-2.25
X6.0177Y-1.9321
X6.0197Y-2.6949
X6.0197Y-2.7323
X6.0197Y-2.7697
X6.0217Y-4.9114
X6.0256Y-4.3593
X6.0296Y-4.2212
X6.0374Y-4.6142
X6.0453Y-2.25
X6.0512Y-4.3839
X6.0551Y-4.5591
X6.0571Y-2.0906
X6.0587Y-4.816
X6.065Y-4.2205
X6.0764Y-2.0122
X6.0764Y-2.0496
X6.0906Y-4.9469
X6.0945Y-2.128
X6.1016Y-4.4321
X6.1118Y-1.9118
X6.1161Y-4.6516
X6.1161Y-4.9154
X6.1354Y-2.1697
X6.1364Y-4.4459
X6.1535Y-4.563
X6.1718Y-4.4454
X6.1909Y-4.9154
X6.2102Y-2.1697
X6.2201Y-1.9118
X6.25Y-4.6161
X6.2654Y-2.0496
X6.2693Y-1.9098
X6.2693Y-2.1008
X6.2697Y-4.4508
X6.2776Y-4.7677
X6.2776Y-4.8169
X6.2776Y-4.9134
X6.2874Y-4.565
X6.2933Y-2.1972
X6.2933Y-3.8996
X6.2953Y-3.7382
X6.2953Y-3.7776
X6.2953Y-3.8169
X6.2953Y-3.8583
X6.3169Y-3.2894
X6.3228Y-4.2303
X6.3248Y-4.2657
X6.3268Y-2.7933
X6.3268Y-2.8307
X6.3268Y-2.8701
X6.3298Y-2.4035
X6.3366Y-4.6161
X6.3419Y-2.2421
X6.3441Y-2.1008
X6.3484Y-4.0467
X6.3484Y-4.153
X6.3504Y-3.2382
X6.3504Y-3.2776
X6.3504Y-3.311
X6.3504Y-3.3504
X6.3583Y-4.2303
X6.3642Y-4.7697
X6.3642Y-4.8051
X6.3652Y-2.404
X6.3657Y-2.0634
X6.3681Y-3.687
X6.369Y-3.9154
X6.3756Y-1.9827
X6.376Y-3.3839
X6.378Y-3.0827
X6.3795Y-1.9305
X6.3917Y-3.5689
X6.4007Y-4.0138
X6.4007Y-3.9744
X6.4026Y-4.4134
X6.4099Y-3.4176
X6.4203Y-2.404
X6.4213Y-4.7835
X6.4236Y-4.7243
X6.4296Y-3.3882
X6.4311Y-4.9213
X6.435Y-3.2165
X6.437Y-4.3996
X6.4449Y-2.8622
X6.4449Y-3.7579
X6.4488Y-3.4832
X6.4492Y-3.4183
X6.4577Y-2.404
X6.4657Y-3.9437
X6.4681Y-2.1972
X6.4682Y-4.3797
X6.4686Y-2.0634
X6.4764Y-3.5078
X6.4835Y-4.5866
X6.4846Y-3.4182
X6.4937Y-1.9571
X6.498Y-4.7244
X6.5Y-3.0039
X6.5Y-3.0413
X6.502Y-2.2155
X6.5039Y-2.8622
X6.5081Y-3.3917
X6.5085Y-2.1008
X6.5148Y-2.026
X6.5148Y-2.1598
X6.515Y-2.4045
X6.5157Y-3.5709
X6.5167Y-4.1781
X6.5202Y-4.5866
X6.5276Y-4.2165
X6.5276Y-4.2539
X6.5291Y-1.9571
X6.5315Y-3.4183
X6.5318Y-3.5272
X6.5394Y-3.2264
X6.5413Y-4.7244
X6.5433Y-4.9134
X6.5522Y-2.4035
X6.5531Y-2.9429
X6.5551Y-3.1673
X6.5572Y-4.7627
X6.565Y-4.2165
X6.5669Y-2.6949
X6.5709Y-3.4882
X6.5709Y-4.2717
X6.5768Y-2.8346
X6.6063Y-2.9429
X6.6161Y-2.2835
X6.624Y-3.3878
X6.6299Y-4.6161
X6.6358Y-4.5689
X6.6437Y-1.9321
X6.6468Y-2.2657
X6.6516Y-4.9134
X6.6516Y-3.1742
X6.6555Y-3.0797
X6.6555Y-3.2579
X6.6555Y-3.2972
X6.6555Y-3.3366
X6.6575Y-2.378
X6.6575Y-2.9429
X6.6654Y-2.1437
X6.6654Y-2.1772
X6.6681Y-4.6169
X6.6686Y-3.143
X6.6758Y-3.8563
X6.6772Y-4.5618
X6.6797Y-4.2507
X6.6811Y-2.2854
X6.6886Y-4.818
X6.689Y-3.1742
X6.6939Y-3.626
X6.6939Y-3.6614
X6.6949Y-3.9311
X6.6988Y-3.2382
X6.7008Y-2.5512
X6.7043Y-2.0122
X6.7043Y-2.0496
X6.7136Y-2.9705
X6.7144Y-2.2846
X6.7151Y-4.2524
X6.7165Y-4.9469
X6.7173Y-3.461
X6.7181Y-3.5039
X6.7224Y-2.878
X6.7283Y-2.7008
X6.7283Y-2.7362
X6.7283Y-3.3236
X6.7283Y-3.3622
X6.733Y-3.0682
X6.7362Y-3.4114
X6.7382Y-2.9961
X6.7398Y-1.9118
X6.7421Y-4.6496
X6.7421Y-4.9154
X6.7458Y-3.4819
X6.748Y-3.2402
X6.748Y-4.1476
X6.7505Y-4.2535
X6.7634Y-2.1697
X6.767Y-3.0781
X6.7697Y-3.1273
X6.7717Y-2.8937
X6.774Y-3.5081
X6.7888Y-4.3655
X6.7953Y-2.4744
X6.7956Y-3.1027
X6.7958Y-3.1519
X6.7982Y-3.0535
X6.7992Y-3.6358
X6.7992Y-3.6957
X6.8031Y-3.8898
X6.8051Y-4.4921
X6.8169Y-4.9154
X6.8228Y-2.8465
X6.8382Y-2.1697
X6.8386Y-3.8543
X6.8418Y-4.332
X6.8425Y-2.6771
X6.8425Y-2.7126
X6.848Y-1.9118
X6.8524Y-3.0039
X6.8731Y-3.9626
X6.876Y-4.6161
X6.8878Y-3.0039
X6.8933Y-2.0496
X6.8972Y-1.9098
X6.8972Y-2.1008
X6.9016Y-2.2874
X6.9035Y-4.7677
X6.9035Y-4.8169
X6.9035Y-4.9134
X6.9091Y-3.5414
X6.9094Y-3.1555
X6.9094Y-3.2539
X6.9104Y-3.2897
X6.9114Y-2.4567
X6.9134Y-3.7224
X6.9134Y-3.7776
X6.9134Y-3.813
X6.9134Y-4.5866
X6.9154Y-3.3248
X6.9163Y-3.4134
X6.9173Y-3.4784
X6.9311Y-2.75
X6.935Y-3.9961
X6.9373Y-3.1848
X6.9386Y-2.187
X6.939Y-4.0472
X6.9392Y-4.1478
X6.9409Y-4.3632
X6.948Y-3.374
X6.9503Y-3.4249
X6.9503Y-3.4603
X6.9528Y-3.002
X6.9596Y-2.5295
X6.9609Y-4.6158
X6.9625Y-3.796
X6.9646Y-3.9547
X6.9656Y-3.3055
X6.9656Y-3.3433
X6.9662Y-3.2191
X6.9665Y-2.878
X6.9665Y-4.4744
X6.9695Y-2.2736
X6.9715Y-3.9965
X6.972Y-2.1008
X6.9781Y-2.9772
X6.9803Y-4.3504
X6.9843Y-2.7185
X6.9869Y-2.3169
X6.9902Y-2.505
X6.9902Y-2.6555
X6.9902Y-4.7697
X6.9902Y-4.8051
X6.9912Y-4.2044
X6.9931Y-3.2421
X6.9931Y-4.4154
X6.9937Y-2.0634
X6.9965Y-3.7839
X7.0Y-3.5787
X7.0Y-3.6161
X7.002Y-3.6664
X7.002Y-3.7155
X7.0035Y-1.9827
X7.0039Y-3.9567
X7.0075Y-1.9305
X7.0315Y-3.6417
X7.0315Y-3.6909
X7.0329Y-3.5918
X7.0329Y-3.5564
X7.0357Y-2.9204
X7.0472Y-4.7815
X7.0492Y-4.7244
X7.0571Y-4.9232
X7.0616Y-2.8962
X7.0728Y-3.1102
X7.0738Y-3.8159
X7.0777Y-2.9711
X7.0836Y-3.2336
X7.0836Y-3.2691
X7.0866Y-2.2835
X7.0886Y-2.4508
X7.0925Y-2.7008
X7.0961Y-2.1972
X7.0966Y-2.0634
X7.0984Y-3.7728
X7.1024Y-3.1614
X7.1033Y-2.9981
X7.1102Y-2.8927
X7.1112Y-3.3344
X7.1122Y-4.0482
X7.1122Y-4.565
X7.1181Y-4.1555
X7.1181Y-4.3612
X7.119Y-3.2697
X7.1201Y-2.4311
X7.1217Y-1.9571
X7.124Y-4.7244
X7.1269Y-3.3661
X7.1299Y-3.189
X7.1359Y-2.2346
X7.1364Y-2.1008
X7.1378Y-4.5906
X7.1418Y-4.0276
X7.1428Y-2.026
X7.1428Y-2.1598
X7.1437Y-3.8445
X7.1472Y-3.3371
X7.1496Y-3.119
X7.1535Y-2.3799
X7.1545Y-3.4164
X7.1571Y-1.9571
X7.1634Y-4.7244
X7.1683Y-3.5512
X7.1683Y-3.7293
X7.1683Y-3.7795
X7.1693Y-4.9134
X7.1742Y-3.3869
X7.1791Y-3.8445
X7.1821Y-4.3622
X7.1831Y-2.9941
X7.1832Y-4.7588
X7.1841Y-2.9112
X7.1853Y-2.7252
X7.1933Y-3.7544
X7.1969Y-2.5531
X7.2087Y-2.2913
X7.2087Y-4.0453
X7.2175Y-3.0102
X7.2182Y-3.7293
X7.2204Y-3.6526
X7.2207Y-2.7254
X7.2215Y-3.7975
X7.2392Y-4.1253
X7.2421Y-2.4232
X7.2421Y-3.9606
X7.2552Y-2.2758
X7.2552Y-2.311
X7.2563Y-4.6161
X7.2579Y-3.9941
X7.2618Y-4.5689
X7.2677Y-3.1122
X7.2713Y-1.9325
X7.2776Y-4.9134
X7.2847Y-2.4065
X7.2863Y-3.7982
X7.2894Y-2.8701
X7.293Y-3.1381
X7.2933Y-3.5502
X7.2941Y-4.6169
X7.2992Y-3.9961
X7.2992Y-4.3669
X7.2992Y-4.563
X7.3165Y-4.818
X7.3169Y-2.8461
X7.3179Y-3.3819
X7.3189Y-3.3465
X7.3202Y-3.9659
X7.3264Y-2.0102
X7.3264Y-2.0476
X7.3287Y-4.0856
X7.3307Y-3.5502
X7.3398Y-2.4065
X7.3412Y-3.8514
X7.3465Y-4.9469
X7.3475Y-3.3219
X7.3501Y-3.1951
X7.3548Y-3.135
X7.3618Y-1.9098
X7.3642Y-2.9311
X7.372Y-4.6516
X7.372Y-4.9154
X7.3757Y-3.1707
X7.376Y-3.8445
X7.3772Y-2.4065
X7.3803Y-4.3957
X7.3803Y-4.4331
X7.3822Y-4.1605
X7.3822Y-4.1979
X7.3835Y-3.0099
X7.3854Y-2.1677
X7.3898Y-4.0856
X7.3904Y-3.3096
X7.3937Y-2.3021
X7.4026Y-3.7982
X7.4075Y-3.9646
X7.4087Y-3.3399
X7.4094Y-4.563
X7.4141Y-2.9921
X7.4261Y-3.3086
X7.4293Y-3.9925
X7.4343Y-2.4065
X7.4469Y-4.9154
X7.4499Y-2.9925
X7.4602Y-2.1677
X7.4701Y-1.9098
X7.4724Y-2.4075
X7.4724Y-2.7559
X7.4724Y-2.7894
X7.4744Y-3.5709
X7.4823Y-2.5531
X7.4826Y-3.7706
X7.4853Y-2.9935
X7.495Y-3.1965
X7.503Y-2.6454
X7.503Y-2.6808
X7.5059Y-4.6161
X7.5076Y-3.7957
X7.5098Y-2.8917
X7.5101Y-3.5707
X7.5154Y-2.0476
X7.5157Y-2.2224
X7.5157Y-3.2721
X7.5158Y-3.628
X7.5193Y-1.9094
X7.5193Y-2.0988
X7.5197Y-3.8425
X7.5207Y-3.2221
X7.5305Y-3.9881
X7.5315Y-4.1555
X7.5315Y-4.4665
X7.5335Y-4.7677
X7.5335Y-4.8169
X7.5335Y-4.9134
X7.5337Y-3.5971
X7.534Y-2.6637
X7.5433Y-4.5669
X7.5433Y-2.4626
X7.5453Y-3.2475
X7.5455Y-3.4164
X7.5482Y-2.9961
X7.5522Y-2.8911
X7.5574Y-4.0111
X7.5584Y-3.7569
X7.5591Y-3.628
X7.5606Y-2.1953
X7.5709Y-3.2185
X7.5728Y-3.9609
X7.5768Y-3.1161
X7.5787Y-2.4626
X7.5807Y-2.9813
X7.5861Y-4.4406
X7.5925Y-4.6201
X7.5935Y-2.2598
X7.5941Y-2.0988
X7.5964Y-3.2461
X7.5965Y-3.8465
X7.5965Y-4.4744
X7.6122Y-3.1161
X7.6146Y-3.7045
X7.6152Y-4.0629
X7.6157Y-2.0614
X7.6181Y-2.3799
X7.6181Y-2.7028
X7.6201Y-4.7677
X7.6201Y-4.8071
X7.621Y-3.2149
X7.6256Y-1.9807
X7.6295Y-1.9285
X7.6319Y-3.8465
X7.6432Y-3.502
X7.6432Y-3.5374
X7.6456Y-3.7215
X7.6457Y-3.2441
X7.6457Y-3.4173
X7.6457Y-3.9606
X7.6467Y-3.1801
X7.6468Y-3.7569
X7.6477Y-3.382
X7.6496Y-3.6004
X7.6594Y-2.5551
X7.6654Y-3.8701
X7.6772Y-4.7835
X7.679Y-3.061
X7.6791Y-4.7244
X7.6811Y-2.7382
X7.6811Y-2.872
X7.687Y-4.9213
X7.6874Y-2.439
X7.6917Y-3.0118
X7.7087Y-4.1555
X7.7144Y-3.06
X7.7175Y-2.7382
X7.7181Y-2.1953
X7.7186Y-2.0614
X7.7283Y-4.4675
X7.7284Y-3.9232
X7.7421Y-4.565
X7.7437Y-1.9551
X7.7536Y-3.8074
X7.7539Y-3.4104
X7.7539Y-4.1956
X7.7539Y-4.4154
X7.7539Y-4.7244
X7.7579Y-3.2638
X7.758Y-2.2327
X7.7585Y-2.0988
X7.7598Y-2.9665
X7.7598Y-3.0886
X7.7598Y-3.126
X7.7598Y-3.2008
X7.7628Y-3.6663
X7.7638Y-4.1004
X7.7648Y-3.9774
X7.7648Y-4.2618
X7.7648Y-2.024
X7.7648Y-2.1579
X7.7657Y-3.3475
X7.7667Y-2.7382
X7.7677Y-4.5906
X7.7776Y-3.8563
X7.7776Y-3.9173
X7.7776Y-4.3248
X7.7791Y-1.9551
X7.7835Y-2.4675
X7.7933Y-2.6634
X7.7933Y-4.4154
X7.7972Y-3.0079
X7.7992Y-4.9134
X7.813Y-4.7244
X7.8131Y-4.7627
X7.8228Y-2.75
X7.8327Y-3.5217
X7.8344Y-3.559
X7.8386Y-2.2894
X7.8602Y-2.75
X7.8602Y-3.0886
X7.8602Y-3.126
X7.8602Y-3.1634
X7.8602Y-3.311
X7.8602Y-3.3484
X7.8642Y-3.4469
X7.8642Y-3.4843
X7.8642Y-3.6319
X7.8642Y-3.6693
X7.8691Y-4.1928
X7.8701Y-2.4547
X7.8819Y-3.825
X7.8862Y-4.6247
X7.8917Y-4.5689
X7.8933Y-1.9305
X7.8996Y-2.2894
X7.9035Y-2.7569
X7.9094Y-4.9134
X7.9154Y-3.6791
X7.9173Y-3.628
X7.9213Y-3.5315
X7.9213Y-3.5866
X7.9213Y-4.498
X7.926Y-4.6169
X7.9264Y-4.5616
X7.9318Y-4.9961
X7.9366Y-4.7323
X7.937Y-3.1663
X7.937Y-3.3091
X7.9449Y-2.4724
X7.9449Y-2.6614
X7.9465Y-4.818
X7.9547Y-3.4843
X7.9685Y-3.5925
X7.9764Y-2.7323
X7.9783Y-2.8346
X7.9783Y-2.9488
X7.9803Y-3.2697
X7.9843Y-4.874
X7.999Y-3.9744
X8.0Y-3.874
X8.001Y-3.8248
X8.002Y-3.3425
X8.0074Y-4.2731
X8.0079Y-3.5917
X8.0082Y-4.0969
X8.0138Y-2.4724
X8.0154Y-4.9961
X8.0177Y-3.3091
X8.0187Y-4.3465
X8.0236Y-3.7205
X8.0295Y-2.8342
X8.0295Y-2.9493
X8.0369Y-3.4765
X8.0384Y-3.3424
X8.061Y-2.5531
X8.062Y-3.9751
X8.0655Y-3.0
X8.0659Y-3.8996
X8.0669Y-3.8248
X8.0689Y-4.3482
X8.0748Y-4.1988
X8.0748Y-4.2736
X8.0768Y-2.7835
X8.0807Y-2.4291
X8.0807Y-2.8327
X8.0807Y-2.9508
X8.1043Y-3.0507
X8.1045Y-3.2243
X8.124Y-2.7008
X8.1437Y-4.4803
X8.1535Y-2.5571
X8.1614Y-3.5039
X8.1673Y-2.2913
X8.1791Y-3.7204
X8.1988Y-3.8996
X8.2028Y-4.2736
T3
X5.1791Y-3.498
X5.2126Y-1.7087
X5.9744Y-3.3307
X6.6083Y-4.0984
X6.6083Y-4.4134
X7.1988Y-4.0984
X7.1988Y-4.4144
X7.9587Y-3.0748
X8.1811Y-3.6752
X8.1831Y-3.4429
T5
X5.2559Y-1.9508
X5.3346Y-1.9508
X8.0807Y-4.5591
X8.0807Y-4.6378
X8.0807Y-4.7165
X8.0807Y-4.7953
X8.0807Y-4.874
X8.1594Y-4.5591
X8.1594Y-4.6378
X8.1594Y-4.7165
X8.1594Y-4.7953
X8.1594Y-4.874
T6
X5.6232Y-4.9992
X5.626Y-1.7165
X5.6732Y-5.0992
X5.676Y-1.8165
X5.7232Y-4.9992
X5.726Y-1.7165
X5.7732Y-5.0992
X5.776Y-1.8165
X5.8232Y-4.9992
X5.826Y-1.7165
X5.8732Y-5.0992
X5.876Y-1.8165
X6.252Y-1.7165
X6.2531Y-4.9992
X6.302Y-1.8165
X6.3031Y-5.0992
X6.352Y-1.7165
X6.3531Y-4.9992
X6.402Y-1.8165
X6.4031Y-5.0992
X6.452Y-1.7165
X6.4531Y-4.9992
X6.502Y-1.8165
X6.5031Y-5.0992
X6.8787Y-1.7165
X6.8799Y-4.9992
X6.9287Y-1.8165
X6.9299Y-5.0992
X6.9787Y-1.7165
X6.9799Y-4.9992
X7.0287Y-1.8165
X7.0299Y-5.0992
X7.0787Y-1.7165
X7.0799Y-4.9992
X7.1287Y-1.8165
X7.1299Y-5.0992
X7.502Y-1.7165
X7.5091Y-4.9992
X7.552Y-1.8165
X7.5591Y-5.0992
X7.602Y-1.7165
X7.6091Y-4.9992
X7.652Y-1.8165
X7.6591Y-5.0992
X7.702Y-1.7165
X7.7091Y-4.9992
X7.752Y-1.8165
X7.7591Y-5.0992
T7
X6.1113Y-2.3567
X6.1113Y-2.4567
X6.1113Y-2.5567
X6.1113Y-2.6567
X6.1113Y-2.7567
X6.1113Y-2.8567
X6.1113Y-2.9567
X6.1113Y-3.0567
X6.1113Y-3.1567
X6.1113Y-3.2567
X6.1113Y-3.3567
X6.1113Y-3.4567
X6.1113Y-3.5567
X6.1113Y-3.6567
X6.1113Y-3.7567
X6.1113Y-3.8567
X6.1113Y-3.9567
X6.1113Y-4.0567
X6.1113Y-4.1567
X6.1113Y-4.2567
X6.2113Y-2.3567
X6.2113Y-2.4567
X6.2113Y-2.5567
X6.2113Y-2.6567
X6.2113Y-2.7567
X6.2113Y-2.8567
X6.2113Y-2.9567
X6.2113Y-3.0567
X6.2113Y-3.1567
X6.2113Y-3.2567
X6.2113Y-3.3567
X6.2113Y-3.4567
X6.2113Y-3.5567
X6.2113Y-3.6567
X6.2113Y-3.7567
X6.2113Y-3.8567
X6.2113Y-3.9567
X6.2113Y-4.0567
X6.2113Y-4.1567
X6.2113Y-4.2567
X6.8787Y-2.7894
X6.9787Y-2.7894
X7.0787Y-2.7894
X7.1787Y-2.7894
T8
X6.5689Y-3.7244
T9
X5.2559Y-2.1654
X5.2559Y-4.4488
T10
X5.315Y-1.5354
X5.315Y-5.2756
X8.0709Y-1.5354
X8.0709Y-5.2756
T4
G00X5.1856Y-3.9581
M15
G01X5.2171Y-3.9581
M16
G05
G00X5.1856Y-4.2983
M15
G01X5.2171Y-4.2983
M16
G05
G00X5.3438Y-3.9581
M15
G01X5.3871Y-3.9581
M16
G05
G00X5.3438Y-4.2983
M15
G01X5.3871Y-4.2983
M16
G05
T0
M30
