%TF.GenerationSoftware,KiCad,Pcbnew,(7.0.0)*%
%TF.CreationDate,2023-03-16T19:41:22+00:00*%
%TF.ProjectId,RobotLegoController,526f626f-744c-4656-976f-436f6e74726f,REV A*%
%TF.SameCoordinates,Original*%
%TF.FileFunction,Soldermask,Bot*%
%TF.FilePolarity,Negative*%
%FSLAX46Y46*%
G04 Gerber Fmt 4.6, Leading zero omitted, Abs format (unit mm)*
G04 Created by KiCad (PCBNEW (7.0.0)) date 2023-03-16 19:41:22*
%MOMM*%
%LPD*%
G01*
G04 APERTURE LIST*
G04 Aperture macros list*
%AMRoundRect*
0 Rectangle with rounded corners*
0 $1 Rounding radius*
0 $2 $3 $4 $5 $6 $7 $8 $9 X,Y pos of 4 corners*
0 Add a 4 corners polygon primitive as box body*
4,1,4,$2,$3,$4,$5,$6,$7,$8,$9,$2,$3,0*
0 Add four circle primitives for the rounded corners*
1,1,$1+$1,$2,$3*
1,1,$1+$1,$4,$5*
1,1,$1+$1,$6,$7*
1,1,$1+$1,$8,$9*
0 Add four rect primitives between the rounded corners*
20,1,$1+$1,$2,$3,$4,$5,0*
20,1,$1+$1,$4,$5,$6,$7,0*
20,1,$1+$1,$6,$7,$8,$9,0*
20,1,$1+$1,$8,$9,$2,$3,0*%
G04 Aperture macros list end*
%ADD10C,6.500000*%
%ADD11C,3.350000*%
%ADD12RoundRect,0.050000X0.760000X0.760000X-0.760000X0.760000X-0.760000X-0.760000X0.760000X-0.760000X0*%
%ADD13C,1.620000*%
%ADD14O,1.700000X2.100000*%
%ADD15RoundRect,0.300000X0.350000X0.625000X-0.350000X0.625000X-0.350000X-0.625000X0.350000X-0.625000X0*%
%ADD16O,1.300000X1.850000*%
%ADD17RoundRect,0.050000X-0.850000X-0.850000X0.850000X-0.850000X0.850000X0.850000X-0.850000X0.850000X0*%
%ADD18O,1.800000X1.800000*%
%ADD19RoundRect,0.050000X-0.760000X-0.760000X0.760000X-0.760000X0.760000X0.760000X-0.760000X0.760000X0*%
%ADD20RoundRect,0.300000X0.350000X-0.350000X0.350000X0.350000X-0.350000X0.350000X-0.350000X-0.350000X0*%
%ADD21C,1.300000*%
%ADD22C,0.700000*%
%ADD23O,2.100000X1.000000*%
%ADD24O,1.800000X1.000000*%
%ADD25RoundRect,0.050000X0.500000X0.500000X-0.500000X0.500000X-0.500000X-0.500000X0.500000X-0.500000X0*%
%ADD26RoundRect,0.050000X-0.500000X0.500000X-0.500000X-0.500000X0.500000X-0.500000X0.500000X0.500000X0*%
%ADD27RoundRect,0.050000X0.500000X-0.500000X0.500000X0.500000X-0.500000X0.500000X-0.500000X-0.500000X0*%
G04 APERTURE END LIST*
D10*
%TO.C,H4*%
X205000000Y-39000000D03*
%TD*%
D11*
%TO.C,J11*%
X151160000Y-37250000D03*
X141000000Y-37250000D03*
D12*
X149250000Y-46140000D03*
D13*
X147980000Y-43600000D03*
X146710000Y-46140000D03*
X145440000Y-43600000D03*
X144170000Y-46140000D03*
X142900000Y-43600000D03*
%TD*%
D14*
%TO.C,U3*%
X174719999Y-70849999D03*
X177259999Y-70849999D03*
X179799999Y-70849999D03*
X182339999Y-70849999D03*
%TD*%
D10*
%TO.C,H3*%
X135000000Y-39000000D03*
%TD*%
D11*
%TO.C,J14*%
X198810000Y-37250000D03*
X188650000Y-37250000D03*
D12*
X196900000Y-46140000D03*
D13*
X195630000Y-43600000D03*
X194360000Y-46140000D03*
X193090000Y-43600000D03*
X191820000Y-46140000D03*
X190550000Y-43600000D03*
%TD*%
D15*
%TO.C,J4*%
X135500000Y-49550000D03*
D16*
X133499999Y-49549999D03*
%TD*%
D10*
%TO.C,H1*%
X135000000Y-134000000D03*
%TD*%
D17*
%TO.C,J2*%
X155227032Y-59861039D03*
D18*
X157767031Y-59861038D03*
X155227031Y-62401038D03*
X157767031Y-62401038D03*
X155227031Y-64941038D03*
X157767031Y-64941038D03*
X155227031Y-67481038D03*
X157767031Y-67481038D03*
X155227031Y-70021038D03*
X157767031Y-70021038D03*
X155227031Y-72561038D03*
X157767031Y-72561038D03*
X155227031Y-75101038D03*
X157767031Y-75101038D03*
X155227031Y-77641038D03*
X157767031Y-77641038D03*
X155227031Y-80181038D03*
X157767031Y-80181038D03*
X155227031Y-82721038D03*
X157767031Y-82721038D03*
X155227031Y-85261038D03*
X157767031Y-85261038D03*
X155227031Y-87801038D03*
X157767031Y-87801038D03*
X155227031Y-90341038D03*
X157767031Y-90341038D03*
X155227031Y-92881038D03*
X157767031Y-92881038D03*
X155227031Y-95421038D03*
X157767031Y-95421038D03*
X155227031Y-97961038D03*
X157767031Y-97961038D03*
X155227031Y-100501038D03*
X157767031Y-100501038D03*
X155227031Y-103041038D03*
X157767031Y-103041038D03*
X155227031Y-105581038D03*
X157767031Y-105581038D03*
X155227031Y-108121038D03*
X157767031Y-108121038D03*
%TD*%
D11*
%TO.C,J7*%
X140920000Y-135870000D03*
X151080000Y-135870000D03*
D19*
X142830000Y-126980000D03*
D13*
X144100000Y-129520000D03*
X145370000Y-126980000D03*
X146640000Y-129520000D03*
X147910000Y-126980000D03*
X149180000Y-129520000D03*
%TD*%
D20*
%TO.C,J1*%
X205250000Y-123800000D03*
D21*
X207250000Y-123800000D03*
X205250000Y-121800000D03*
X207250000Y-121800000D03*
X205250000Y-119800000D03*
X207250000Y-119800000D03*
X205250000Y-117800000D03*
X207250000Y-117800000D03*
X205250000Y-115800000D03*
X207250000Y-115800000D03*
%TD*%
D11*
%TO.C,J10*%
X188820000Y-135870000D03*
X198980000Y-135870000D03*
D19*
X190730000Y-126980000D03*
D13*
X192000000Y-129520000D03*
X193270000Y-126980000D03*
X194540000Y-129520000D03*
X195810000Y-126980000D03*
X197080000Y-129520000D03*
%TD*%
D11*
%TO.C,J9*%
X172840000Y-135870000D03*
X183000000Y-135870000D03*
D19*
X174750000Y-126980000D03*
D13*
X176020000Y-129520000D03*
X177290000Y-126980000D03*
X178560000Y-129520000D03*
X179830000Y-126980000D03*
X181100000Y-129520000D03*
%TD*%
D11*
%TO.C,J12*%
X167060000Y-37250000D03*
X156900000Y-37250000D03*
D12*
X165150000Y-46140000D03*
D13*
X163880000Y-43600000D03*
X162610000Y-46140000D03*
X161340000Y-43600000D03*
X160070000Y-46140000D03*
X158800000Y-43600000D03*
%TD*%
D11*
%TO.C,J13*%
X182980000Y-37250000D03*
X172820000Y-37250000D03*
D12*
X181070000Y-46140000D03*
D13*
X179800000Y-43600000D03*
X178530000Y-46140000D03*
X177260000Y-43600000D03*
X175990000Y-46140000D03*
X174720000Y-43600000D03*
%TD*%
D22*
%TO.C,J3*%
X135803195Y-101966524D03*
X135803195Y-107746524D03*
D23*
X136283194Y-100536523D03*
D24*
X132113194Y-100536523D03*
D23*
X136283194Y-109176523D03*
D24*
X132113194Y-109176523D03*
%TD*%
D11*
%TO.C,J8*%
X156920000Y-135870000D03*
X167080000Y-135870000D03*
D19*
X158830000Y-126980000D03*
D13*
X160100000Y-129520000D03*
X161370000Y-126980000D03*
X162640000Y-129520000D03*
X163910000Y-126980000D03*
X165180000Y-129520000D03*
%TD*%
D10*
%TO.C,H2*%
X205000000Y-134000000D03*
%TD*%
D25*
%TO.C,TP115*%
X194650000Y-60350000D03*
%TD*%
%TO.C,TP136*%
X190900000Y-57450000D03*
%TD*%
%TO.C,TP24*%
X139450000Y-93450000D03*
%TD*%
%TO.C,TP89*%
X199600000Y-129800000D03*
%TD*%
%TO.C,TP116*%
X204150000Y-61300000D03*
%TD*%
%TO.C,TP105*%
X169050000Y-76200000D03*
%TD*%
%TO.C,TP5*%
X164150000Y-80100000D03*
%TD*%
%TO.C,TP28*%
X131550000Y-88850000D03*
%TD*%
%TO.C,TP112*%
X163850000Y-41100000D03*
%TD*%
%TO.C,TP111*%
X167950000Y-46100000D03*
%TD*%
%TO.C,TP74*%
X201550000Y-106200000D03*
%TD*%
%TO.C,TP145*%
X207750000Y-95750000D03*
%TD*%
%TO.C,TP54*%
X150500000Y-126600000D03*
%TD*%
%TO.C,TP126*%
X181550000Y-68300000D03*
%TD*%
%TO.C,TP57*%
X163300000Y-116500000D03*
%TD*%
%TO.C,TP103*%
X166800000Y-67000000D03*
%TD*%
%TO.C,TP32*%
X151000000Y-98750000D03*
%TD*%
%TO.C,TP27*%
X139450000Y-106800000D03*
%TD*%
%TO.C,TP119*%
X195500000Y-68150000D03*
%TD*%
%TO.C,TP67*%
X167150000Y-116050000D03*
%TD*%
%TO.C,TP79*%
X198350000Y-126600000D03*
%TD*%
%TO.C,TP52*%
X142300000Y-115950000D03*
%TD*%
%TO.C,TP91*%
X199000000Y-117200000D03*
%TD*%
%TO.C,TP87*%
X183650000Y-129800000D03*
%TD*%
%TO.C,TP18*%
X161050000Y-86850000D03*
%TD*%
%TO.C,TP30*%
X138400000Y-98700000D03*
%TD*%
%TO.C,TP109*%
X147950000Y-41100000D03*
%TD*%
%TO.C,TP38*%
X163700000Y-101700000D03*
%TD*%
%TO.C,TP75*%
X206500000Y-106650000D03*
%TD*%
%TO.C,TP110*%
X152000000Y-46150000D03*
%TD*%
%TO.C,TP37*%
X143750000Y-94700000D03*
%TD*%
%TO.C,TP16*%
X166800000Y-64100000D03*
%TD*%
%TO.C,TP58*%
X152100000Y-94500000D03*
%TD*%
%TO.C,TP77*%
X189800000Y-116000000D03*
%TD*%
%TO.C,TP96*%
X171350000Y-62850000D03*
%TD*%
%TO.C,TP81*%
X195500000Y-115950000D03*
%TD*%
%TO.C,TP99*%
X177550000Y-66250000D03*
%TD*%
D26*
%TO.C,TP21*%
X182850000Y-112125000D03*
%TD*%
D25*
%TO.C,TP78*%
X182400000Y-126600000D03*
%TD*%
%TO.C,TP25*%
X153150000Y-108900000D03*
%TD*%
%TO.C,TP117*%
X197300000Y-70900000D03*
%TD*%
%TO.C,TP31*%
X145500000Y-97750000D03*
%TD*%
%TO.C,TP134*%
X144900000Y-57800000D03*
%TD*%
%TO.C,TP130*%
X199650000Y-46150000D03*
%TD*%
%TO.C,TP70*%
X172750000Y-129000000D03*
%TD*%
%TO.C,TP29*%
X149100000Y-101200000D03*
%TD*%
%TO.C,TP14*%
X172350000Y-83250000D03*
%TD*%
%TO.C,TP124*%
X191500000Y-66250000D03*
%TD*%
%TO.C,TP113*%
X197800000Y-61250000D03*
%TD*%
%TO.C,TP92*%
X201950000Y-109550000D03*
%TD*%
%TO.C,TP49*%
X161300000Y-112950000D03*
%TD*%
%TO.C,TP51*%
X201550000Y-96850000D03*
%TD*%
%TO.C,TP8*%
X189700000Y-91950000D03*
%TD*%
%TO.C,TP125*%
X191550000Y-69950000D03*
%TD*%
%TO.C,TP1*%
X207250000Y-125850000D03*
%TD*%
D27*
%TO.C,TP17*%
X167850000Y-104100000D03*
%TD*%
D25*
%TO.C,TP133*%
X151750000Y-84600000D03*
%TD*%
%TO.C,TP127*%
X182600000Y-75000000D03*
%TD*%
%TO.C,TP76*%
X174200000Y-115900000D03*
%TD*%
%TO.C,TP9*%
X163300000Y-85200000D03*
%TD*%
%TO.C,TP135*%
X151000000Y-57050000D03*
%TD*%
%TO.C,TP95*%
X181700000Y-63900000D03*
%TD*%
%TO.C,TP66*%
X151150000Y-116000000D03*
%TD*%
%TO.C,TP63*%
X151750000Y-129800000D03*
%TD*%
%TO.C,TP142*%
X174000000Y-58100000D03*
%TD*%
%TO.C,TP47*%
X156850000Y-129000000D03*
%TD*%
%TO.C,TP90*%
X182800000Y-117050000D03*
%TD*%
%TO.C,TP23*%
X132400000Y-43400000D03*
%TD*%
%TO.C,TP82*%
X136200000Y-104100000D03*
%TD*%
%TO.C,TP69*%
X201550000Y-103150000D03*
%TD*%
%TO.C,TP64*%
X166550000Y-122400000D03*
%TD*%
%TO.C,TP12*%
X174550000Y-81200000D03*
%TD*%
%TO.C,TP56*%
X147350000Y-115950000D03*
%TD*%
%TO.C,TP138*%
X178950000Y-60450000D03*
%TD*%
%TO.C,TP88*%
X198450000Y-122400000D03*
%TD*%
%TO.C,TP93*%
X204950000Y-112000000D03*
%TD*%
%TO.C,TP68*%
X201550000Y-99800000D03*
%TD*%
%TO.C,TP46*%
X140800000Y-128950000D03*
%TD*%
%TO.C,TP65*%
X167750000Y-129800000D03*
%TD*%
%TO.C,TP6*%
X208350000Y-113900000D03*
%TD*%
%TO.C,TP149*%
X202150000Y-78100000D03*
%TD*%
%TO.C,TP106*%
X167000000Y-70650000D03*
%TD*%
%TO.C,TP22*%
X142600000Y-100350000D03*
%TD*%
%TO.C,TP120*%
X206350000Y-70650000D03*
%TD*%
%TO.C,TP132*%
X195650000Y-91200000D03*
%TD*%
%TO.C,TP146*%
X207800000Y-93350000D03*
%TD*%
%TO.C,TP50*%
X202400000Y-93900000D03*
%TD*%
%TO.C,TP128*%
X179800000Y-41150000D03*
%TD*%
%TO.C,TP13*%
X167950000Y-80000000D03*
%TD*%
%TO.C,TP140*%
X201800000Y-66050000D03*
%TD*%
%TO.C,TP147*%
X207850000Y-87450000D03*
%TD*%
%TO.C,TP33*%
X161750000Y-94900000D03*
%TD*%
%TO.C,TP114*%
X201200000Y-61300000D03*
%TD*%
%TO.C,TP122*%
X190050000Y-63700000D03*
%TD*%
%TO.C,TP60*%
X151600000Y-112850000D03*
%TD*%
%TO.C,TP97*%
X181750000Y-61750000D03*
%TD*%
%TO.C,TP141*%
X191050000Y-60500000D03*
%TD*%
%TO.C,TP107*%
X163500000Y-77250000D03*
%TD*%
%TO.C,TP108*%
X165100000Y-74750000D03*
%TD*%
%TO.C,TP62*%
X150550000Y-122400000D03*
%TD*%
%TO.C,TP72*%
X178750000Y-110500000D03*
%TD*%
%TO.C,TP148*%
X205850000Y-80650000D03*
%TD*%
%TO.C,TP61*%
X183650000Y-109600000D03*
%TD*%
%TO.C,TP80*%
X179250000Y-116000000D03*
%TD*%
%TO.C,TP139*%
X175900000Y-60450000D03*
%TD*%
%TO.C,TP4*%
X207250000Y-129000000D03*
%TD*%
%TO.C,TP7*%
X169100000Y-88400000D03*
%TD*%
%TO.C,TP143*%
X170200000Y-66250000D03*
%TD*%
%TO.C,TP55*%
X166500000Y-126600000D03*
%TD*%
%TO.C,TP59*%
X173750000Y-111400000D03*
%TD*%
%TO.C,TP3*%
X162800000Y-89500000D03*
%TD*%
%TO.C,TP104*%
X160650000Y-76950000D03*
%TD*%
%TO.C,TP123*%
X183950000Y-60150000D03*
%TD*%
%TO.C,TP34*%
X161750000Y-97500000D03*
%TD*%
%TO.C,TP118*%
X203600000Y-68300000D03*
%TD*%
%TO.C,TP86*%
X182450000Y-122350000D03*
%TD*%
%TO.C,TP83*%
X189000000Y-111650000D03*
%TD*%
%TO.C,TP100*%
X170750000Y-71750000D03*
%TD*%
D26*
%TO.C,TP19*%
X167850000Y-112100000D03*
%TD*%
D27*
%TO.C,TP15*%
X182850000Y-104100000D03*
%TD*%
D25*
%TO.C,TP11*%
X190750000Y-89400000D03*
%TD*%
%TO.C,TP10*%
X165500000Y-87950000D03*
%TD*%
%TO.C,TP2*%
X167250000Y-83100000D03*
%TD*%
%TO.C,TP26*%
X139450000Y-102750000D03*
%TD*%
%TO.C,TP137*%
X193850000Y-63250000D03*
%TD*%
%TO.C,TP71*%
X188700000Y-129000000D03*
%TD*%
%TO.C,TP101*%
X179450000Y-75250000D03*
%TD*%
%TO.C,TP129*%
X183850000Y-46150000D03*
%TD*%
%TO.C,TP73*%
X192150000Y-114700000D03*
%TD*%
%TO.C,TP98*%
X169550000Y-69100000D03*
%TD*%
%TO.C,TP144*%
X203400000Y-86550000D03*
%TD*%
%TO.C,TP94*%
X178700000Y-63400000D03*
%TD*%
%TO.C,TP20*%
X168900000Y-59250000D03*
%TD*%
%TO.C,TP53*%
X158350000Y-116050000D03*
%TD*%
%TO.C,TP85*%
X161300000Y-81100000D03*
%TD*%
%TO.C,TP84*%
X144050000Y-104000000D03*
%TD*%
%TO.C,TP131*%
X195650000Y-41100000D03*
%TD*%
%TO.C,TP48*%
X143550000Y-113600000D03*
%TD*%
M02*
